<svg xmlns="http://www.w3.org/2000/svg" width="40" height="40" viewBox="0 0 40 40" fill="none">
    <g clip-path="url(#clip0_1_439)">
        <path
            d="M11.7383 18.825C11.1867 18.2741 10.2904 18.2741 9.73887 18.825C9.18731 19.3759 9.18731 20.2711 9.73887 20.822L16.2542 27.3294C16.53 27.6049 16.8747 27.7426 17.2539 27.7426C17.2884 27.7426 17.2884 27.7426 17.3228 27.7426C17.702 27.7082 18.0812 27.536 18.357 27.2261L34.6625 7.70373C35.1451 7.1184 35.0762 6.2232 34.4901 5.70673C33.9041 5.2247 33.0078 5.29356 32.4907 5.87889L17.1505 24.2306L11.7383 18.825Z"
            fill="#272727" />
        <path
            d="M30.5599 3.05547C22.6312 -1.9026 12.4618 -0.731946 5.8431 5.87882C-1.9477 13.6602 -1.9477 26.3653 5.8431 34.1467C9.73849 38.0374 14.8749 40 19.9768 40C25.0788 40 30.2152 38.0374 34.1106 34.1467C40.7638 27.5015 41.9014 17.3099 36.9029 9.39079C36.4892 8.7366 35.6274 8.53001 34.9724 8.94318C34.3174 9.35636 34.1106 10.2171 34.5242 10.8713C38.8333 17.6887 37.8336 26.4342 32.1112 32.1497C25.4235 38.8293 14.4957 38.8293 7.80803 32.1497C1.12036 25.4701 1.12036 14.5554 7.80803 7.87582C13.5305 2.19469 22.252 1.19619 29.0776 5.43121C29.7326 5.84439 30.5944 5.6378 31.008 4.98361C31.4217 4.32942 31.2149 3.46864 30.5599 3.05547Z"
            fill="#272727" />
    </g>
    <defs>
        <clipPath id="clip0_1_439">
            <rect width="40" height="40" fill="white" />
        </clipPath>
    </defs>
</svg>