<svg xmlns="http://www.w3.org/2000/svg" width="72" height="56" viewBox="0 0 72 56" fill="none">
    <path d="M34.0699 46.2006C33.8631 46.186 33.9501 46.2066 33.7433 46.2207L31.4756 46.3749L29.2066 46.2206C29.0007 46.2066 29.0873 46.1862 28.8814 46.2006C25.1043 46.4644 25.3684 50.2058 29.1534 50.3074C29.8728 50.3267 30.6463 50.3375 31.4769 50.3375C32.3066 50.3375 33.0792 50.3268 33.7979 50.3075C37.5816 50.2063 37.8456 46.4668 34.0699 46.2006Z" fill="url(#paint0_linear_1_218)"/>
    <path style="mix-blend-mode:overlay" opacity="0.54" d="M31.475 49.983C25.0523 49.983 22.0497 49.3417 21.028 49.0553C20.9741 49.0402 20.9169 49.0493 20.871 49.0815C20.7526 49.1646 20.7762 49.3362 20.9149 49.3772C21.8164 49.644 24.801 50.3373 31.475 50.3373C38.1467 50.3373 41.132 49.6464 42.0348 49.3801C42.1736 49.3392 42.197 49.1672 42.0785 49.0841C42.0328 49.0521 41.976 49.0429 41.9223 49.0579C40.9014 49.3415 37.897 49.983 31.475 49.983Z" fill="url(#paint1_linear_1_218)"/>
    <path d="M42.6532 50.2105C42.4813 49.7017 41.9154 49.423 41.392 49.5431C40.0194 49.8579 37.0214 50.3362 31.4764 50.3362C25.6733 50.3362 22.6597 49.8119 21.3793 49.4998C20.9091 49.3852 20.5009 49.582 20.3464 50.0406C20.1506 50.6215 20.4589 51.2381 21.0557 51.3781C22.6054 51.7416 25.9115 52.3168 31.3608 52.3323H31.5822C37.2461 52.3162 40.5946 51.6955 42.0622 51.3362C42.5609 51.2141 42.8175 50.6969 42.6532 50.2105Z" fill="url(#paint2_linear_1_218)"/>
    <path opacity="0.36" d="M20.6099 49.2741C20.6097 49.2756 20.6086 49.2777 20.61 49.2772C20.6761 49.2532 25.9673 47.3406 32.0074 47.2943C32.2036 47.2928 32.2222 47.3176 32.4113 47.2654C33.3499 47.0061 32.9699 46.2753 31.9983 46.3402L31.4789 46.3749L30.1101 46.2818C29.3046 46.227 28.4959 46.2179 27.7002 46.3545C26.1079 46.6279 23.1968 47.3614 20.6107 49.2728C20.6103 49.2731 20.61 49.2736 20.6099 49.2741Z" fill="#401E00"/>
    <path d="M36.0209 39.3902C35.5879 39.3095 34.1612 39.1779 32.3327 39.1487H32.2282H31.9823H31.2591H31.0138H30.9087C29.0802 39.1779 27.6536 39.3095 27.2206 39.3902C27.0636 39.409 26.9588 39.559 26.9929 39.7133L28.1455 44.934C28.3908 46.0449 29.0453 47.0309 30.1691 47.2079C30.3849 47.2419 30.6253 47.2702 30.8922 47.2895L30.9418 47.2936H30.9477C31.1566 47.3088 31.3807 47.3169 31.6207 47.3158C31.8607 47.3146 32.0835 47.3088 32.2937 47.2936H32.2996L32.3492 47.2895C32.6188 47.2704 32.8614 47.2421 33.0788 47.2079C34.199 47.0315 34.8501 46.0473 35.0946 44.94L36.2485 39.7133C36.2826 39.559 36.1778 39.409 36.0209 39.3902Z" fill="url(#paint3_linear_1_218)"/>
    <path style="mix-blend-mode:overlay" opacity="0.58" d="M33.1663 45.8601C33.1389 46.552 34.0754 47.0717 34.6545 46.6922C34.8558 46.5602 34.7465 46.5191 34.7984 46.2841L36.249 39.7135C36.2831 39.5592 36.1783 39.4093 36.0214 39.3904C35.7669 39.343 35.1676 39.2782 34.346 39.2264C34.1823 39.2161 34.019 39.252 33.874 39.3286C33.5901 39.4787 33.4076 39.7685 33.3949 40.0894L33.1663 45.8601Z" fill="url(#paint4_linear_1_218)"/>
    <path style="mix-blend-mode:overlay" opacity="0.35" d="M30.3374 39.9554C30.3067 39.6171 30.0748 39.3308 29.7503 39.2305C29.6582 39.2021 29.5616 39.1897 29.4653 39.1943C28.3495 39.248 27.5292 39.3321 27.2186 39.3898C27.0617 39.4087 26.9569 39.5586 26.9909 39.713L28.1435 44.934C28.3888 46.0451 29.0434 47.0312 30.1674 47.2082C30.3831 47.2422 30.6234 47.2704 30.8903 47.2897L30.9398 47.2938H30.9458C30.9751 47.2938 31.0013 47.2684 30.9987 47.2392L30.3374 39.9554Z" fill="url(#paint5_linear_1_218)"/>
    <path d="M39.8256 39.8789C39.9597 39.3512 39.5486 38.8429 39.0046 38.8635L31.6183 39.1433L24.2311 38.8635C23.6873 38.8429 23.2763 39.3507 23.4098 39.8783C23.4824 40.1649 23.7038 40.389 23.9921 40.4543C25.0892 40.7025 28.0204 41.278 31.6176 41.278C35.2168 41.278 38.1473 40.7024 39.2437 40.4542C39.5318 40.389 39.7529 40.1652 39.8256 39.8789Z" fill="url(#paint6_linear_1_218)"/>
    <path style="mix-blend-mode:overlay" opacity="0.2" d="M29.0291 39.9031C28.9546 39.4028 28.5344 39.0265 28.029 39.0073L24.2332 38.8635C23.6893 38.8429 23.2783 39.3508 23.4118 39.8784C23.4843 40.1649 23.705 40.3889 23.9932 40.4542C24.679 40.6096 26.0826 40.8932 27.9186 41.0839C28.5866 41.1533 29.1281 40.5673 29.0291 39.9031Z" fill="url(#paint7_linear_1_218)"/>
    <path d="M12.2107 25.3284C12.0154 24.5229 11.2274 24.008 10.4112 24.1525L1.28435 25.7689C0.834028 25.8486 0.505859 26.24 0.505859 26.6974C0.505859 26.8768 0.557049 27.0525 0.653418 27.2038L4.67379 33.5176C5.33646 34.5582 6.31148 35.3625 7.45919 35.8152L7.87258 35.9782C8.60173 36.2658 9.39604 36.3468 10.1682 36.2123L13.7877 35.582C14.4268 35.4707 14.8199 34.82 14.621 34.2025C14.4636 33.7136 13.9803 33.406 13.4707 33.4704L10.6783 33.8231C10.0397 33.9037 9.3911 33.8319 8.78567 33.6134C7.95758 33.3145 7.24867 32.7553 6.76517 32.0196L4.86216 29.1238C4.49284 28.5619 4.53673 27.824 4.97005 27.3098C5.29796 26.9206 5.79888 26.7214 6.30449 26.779L10.5071 27.2583C11.5914 27.3819 12.4679 26.389 12.2107 25.3284Z" fill="url(#paint8_linear_1_218)"/>
    <path d="M11.7972 24.0132C11.628 23.2861 11.0182 22.7451 10.2761 22.6637L6.09482 22.2055C4.74057 22.0571 3.39954 22.5816 2.50526 23.6093C1.31494 24.9773 1.14848 26.959 2.09391 28.5064L4.5843 32.5824C5.20137 33.5924 6.1241 34.3795 7.21869 34.8297L7.59845 34.9859C8.33537 35.289 9.14373 35.3745 9.92775 35.2322L13.3556 34.6102C13.9924 34.4947 14.3849 33.8484 14.1939 33.2301C14.0387 32.7275 13.5437 32.4101 13.0222 32.4788L10.3869 32.8256C9.75504 32.9087 9.11239 32.8349 8.51581 32.6106C7.72381 32.3129 7.05088 31.7644 6.59956 31.0487L4.70745 28.0482C4.35894 27.4955 4.40085 26.7823 4.81168 26.2743C5.14152 25.8664 5.65771 25.6565 6.17861 25.7183L9.87716 26.1577C11.0875 26.3015 12.0734 25.2003 11.7972 24.0132Z" fill="url(#paint9_linear_1_218)"/>
    <g opacity="0.28">
      <path d="M8.31024 32.5343C7.64891 32.2857 7.08703 31.8277 6.71023 31.23L4.39557 27.5587C4.34719 27.4819 4.23769 27.4755 4.18066 27.5461C4.14504 27.5901 4.14141 27.6519 4.17162 27.6999L6.59551 31.5445C7.04674 32.2602 7.71963 32.8087 8.5116 33.1064L8.6551 33.1604C9.15748 33.3492 9.69867 33.4114 10.2308 33.3413L13.7795 32.8739C13.9305 32.854 14.0273 32.703 13.9822 32.5575C13.9468 32.443 13.8341 32.3707 13.7153 32.3864L10.3827 32.825C9.75084 32.9081 9.10824 32.8343 8.51171 32.6101L8.31024 32.5343Z" fill="#FFFF00"/>
      <path d="M3.03059 23.4995C3.59457 22.8513 4.44035 22.5205 5.29447 22.6141L11.2856 23.2705C11.4547 23.289 11.5913 23.1348 11.5526 22.9692C11.5288 22.8673 11.4433 22.7915 11.3393 22.7801L6.09212 22.2051C4.73834 22.0567 3.39776 22.581 2.5038 23.6084L0.582373 25.8166C0.535664 25.8703 0.529154 25.9481 0.566287 26.0088C0.623804 26.1028 0.756089 26.1139 0.828432 26.0307L3.03059 23.4995Z" fill="#FFFF00"/>
    </g>
    <g opacity="0.23">
      <path d="M10.5078 26.5723C10.5884 26.99 10.9308 27.307 11.3535 27.3551C12.0258 27.4317 12.5692 26.816 12.4097 26.1584L11.8716 23.9397C11.8656 23.915 11.8415 23.8993 11.8165 23.9037C11.7914 23.9081 11.7672 23.8921 11.7614 23.8673L11.6315 23.3088C11.5603 23.0036 11.3042 22.7767 10.9927 22.7425L10.9053 22.7329C10.3277 22.6696 9.8538 23.1837 9.96391 23.7543L10.5078 26.5723Z" fill="#401E00"/>
      <path d="M14.3643 33.4126C14.3543 33.3817 14.3238 33.3623 14.2916 33.3663C14.2591 33.3704 14.2284 33.3505 14.2187 33.3192L14.0701 32.836C13.985 32.5608 13.7138 32.387 13.4282 32.4245L12.9304 32.49C12.2532 32.579 11.7908 33.2202 11.9202 33.8909L12.0574 34.6023C12.1901 35.2902 12.8494 35.7451 13.5396 35.6248L13.785 35.5821C14.4243 35.4707 14.8174 34.8199 14.6185 34.2022L14.3643 33.4126Z" fill="#401E00"/>
    </g>
    <path d="M50.8042 25.3285C50.9996 24.5229 51.7875 24.008 52.6038 24.1526L61.7306 25.7689C62.1809 25.8487 62.5091 26.2401 62.5091 26.6974C62.5091 26.8768 62.4579 27.0525 62.3616 27.2038L58.3418 33.5174C57.6792 34.5582 56.7041 35.3625 55.5563 35.8152L55.1428 35.9783C54.4138 36.2658 53.6196 36.3468 52.8476 36.2124L49.2276 35.582C48.5884 35.4707 48.1953 34.8198 48.3944 34.2023C48.552 33.7135 49.0352 33.406 49.5447 33.4704L52.3366 33.8231C52.9752 33.9038 53.6239 33.8319 54.2294 33.6134C55.0574 33.3145 55.7663 32.7554 56.2498 32.0198L58.1534 29.1238C58.5227 28.5619 58.4789 27.824 58.0455 27.3097C57.7177 26.9206 57.2168 26.7214 56.7112 26.7791L52.5078 27.2583C51.4236 27.3819 50.5471 26.389 50.8042 25.3285Z" fill="url(#paint10_linear_1_218)"/>
    <path d="M51.2188 24.0132C51.388 23.2861 51.9978 22.7451 52.7399 22.6637L56.9212 22.2055C58.2754 22.0571 59.6165 22.5816 60.5108 23.6093C61.7011 24.9773 61.8675 26.959 60.9221 28.5064L58.4317 32.5824C57.8147 33.5924 56.8919 34.3795 55.7973 34.8297L55.4173 34.986C54.6806 35.289 53.8724 35.3745 53.0886 35.2323L49.6608 34.6103C49.0239 34.4947 48.6313 33.8482 48.8226 33.2298C48.978 32.7274 49.4729 32.4101 49.9943 32.4787L52.6291 32.8255C53.261 32.9087 53.9036 32.8349 54.5002 32.6106C55.2922 32.3129 55.9652 31.7644 56.4165 31.0487L58.3086 28.0482C58.6571 27.4955 58.6152 26.7823 58.2043 26.2743C57.8745 25.8664 57.3583 25.6565 56.8374 25.7183L53.1389 26.1577C51.9286 26.3015 50.9426 25.2003 51.2188 24.0132Z" fill="url(#paint11_linear_1_218)"/>
    <g opacity="0.28">
      <path d="M54.7008 32.5344C55.3621 32.2857 55.9241 31.8277 56.3009 31.2301L58.6161 27.5587C58.6645 27.4819 58.774 27.4755 58.831 27.5461C58.8667 27.5901 58.8703 27.652 58.8401 27.6999L56.4156 31.5446C55.9643 32.2603 55.2915 32.8087 54.4995 33.1064L54.3559 33.1604C53.8535 33.3493 53.3124 33.4114 52.7803 33.3413L49.2322 32.8739C49.0812 32.854 48.9845 32.703 49.0295 32.5575C49.0649 32.443 49.1776 32.3708 49.2964 32.3864L52.6283 32.8249C53.2602 32.9081 53.9028 32.8343 54.4994 32.61L54.7008 32.5344Z" fill="white"/>
      <path d="M59.9825 23.4982C59.4191 22.8508 58.5743 22.5204 57.7211 22.6139L51.7287 23.2705C51.5597 23.289 51.4231 23.135 51.4616 22.9694C51.4853 22.8674 51.5708 22.7915 51.675 22.78L56.9197 22.2053C58.2748 22.0568 59.6168 22.5816 60.5116 23.61L62.4319 25.8169C62.4785 25.8704 62.485 25.9479 62.4481 26.0085C62.3908 26.1026 62.2585 26.1138 62.1862 26.0307L59.9825 23.4982Z" fill="white"/>
    </g>
    <g opacity="0.29">
      <path d="M50.7141 33.6183C50.829 33.0694 50.4526 32.5386 49.8965 32.4655L49.5851 32.4246C49.2994 32.387 49.0282 32.5608 48.9431 32.8361L48.7938 33.3196C48.7842 33.3507 48.7536 33.3704 48.7213 33.3664C48.6893 33.3623 48.6589 33.3816 48.649 33.4123L48.3944 34.2024C48.1953 34.8199 48.5943 35.4719 49.2335 35.5833C49.806 35.683 50.3597 35.3119 50.4787 34.7431L50.7141 33.6183Z" fill="#401E00"/>
      <path d="M51.3807 23.3088L51.251 23.8669C51.2452 23.892 51.2208 23.9081 51.1954 23.9037C51.1703 23.8993 51.146 23.9151 51.14 23.94L50.5507 26.3698C50.4161 26.9247 50.8746 27.4444 51.4421 27.3799C51.7942 27.3398 52.0809 27.0786 52.1535 26.7317L52.8053 23.617C52.9068 23.132 52.5052 22.6894 52.0127 22.7433C51.705 22.777 51.4522 23.0013 51.3821 23.3028L51.3807 23.3088Z" fill="#401E00"/>
    </g>
    <path d="M52.6993 19.3937C52.6993 17.7384 43.2631 16.3965 31.6221 16.3965C19.9812 16.3965 10.5449 17.7414 10.5449 19.3937C10.5469 19.5277 10.6055 19.6525 10.6363 19.7829C11.1489 21.9597 13.6945 32.6334 14.8109 34.8941C16.0205 37.3432 22.661 39.4941 31.249 39.612C31.2506 39.6121 31.2519 39.6134 31.2519 39.615C31.2519 39.6166 31.2532 39.6179 31.2549 39.6179C31.3781 39.6179 31.4995 39.6179 31.6221 39.6179C31.7448 39.6179 31.8661 39.6179 31.9894 39.6179C31.991 39.6179 31.9923 39.6166 31.9923 39.615C31.9923 39.6134 31.9937 39.6121 31.9953 39.612C40.5833 39.4946 47.2244 37.3432 48.4341 34.8941C49.5497 32.6335 52.0952 21.9602 52.608 19.7846C52.6387 19.6543 52.6974 19.5294 52.6993 19.3955V19.3937Z" fill="url(#paint12_radial_1_218)"/>
    <path style="mix-blend-mode:screen" d="M39.7601 35.7626C48.9581 35.7626 56.4146 29.1676 56.4146 21.0322C56.4146 12.8969 48.9581 6.30188 39.7601 6.30188C30.562 6.30188 23.1055 12.8969 23.1055 21.0322C23.1055 29.1676 30.562 35.7626 39.7601 35.7626Z" fill="url(#paint13_radial_1_218)"/>
    <path style="mix-blend-mode:screen" d="M39.596 34.0638C48.7941 34.0638 56.2506 27.4687 56.2506 19.3334C56.2506 11.198 48.7941 4.60303 39.596 4.60303C30.3979 4.60303 22.9414 11.198 22.9414 19.3334C22.9414 27.4687 30.3979 34.0638 39.596 34.0638Z" fill="url(#paint14_radial_1_218)"/>
    <path style="mix-blend-mode:screen" d="M32.2893 32.3594C41.4874 32.3594 48.9439 25.7644 48.9439 17.629C48.9439 9.49369 41.4874 2.89868 32.2893 2.89868C23.0913 2.89868 15.6348 9.49369 15.6348 17.629C15.6348 25.7644 23.0913 32.3594 32.2893 32.3594Z" fill="url(#paint15_radial_1_218)"/>
    <path style="mix-blend-mode:overlay" d="M43.9254 18.8039C41.2584 18.4085 38.7956 20.3041 38.4604 22.9794C38.0015 26.6416 37.3626 31.2859 36.8904 32.9209C36.0673 35.7708 30.0964 39.6684 23.1445 38.8223C25.5131 39.2818 28.2617 39.5688 31.2467 39.6099C31.2482 39.6099 31.2494 39.6111 31.2494 39.6125C31.2494 39.614 31.2506 39.6152 31.252 39.6152C31.3754 39.6152 31.4968 39.6152 31.6196 39.6152C31.7423 39.6152 31.8638 39.6152 31.9871 39.6152C31.9886 39.6152 31.9898 39.614 31.9898 39.6125C31.9898 39.6111 31.991 39.6099 31.9924 39.6099C34.8783 39.57 37.5436 39.2999 39.8566 38.8674C40.0457 38.8089 44.7017 37.3951 45.8797 32.7596C46.4686 30.4435 47.2288 27.2317 47.8516 24.5559C48.4793 21.8588 46.6646 19.21 43.9254 18.8039Z" fill="url(#paint16_linear_1_218)"/>
    <path style="mix-blend-mode:overlay" opacity="0.31" d="M21.3846 34.0565C20.9792 33.0972 20.2561 29.2612 19.5907 25.3806C18.8077 20.814 10.5449 14.8737 10.5449 19.5068C10.5469 19.6412 10.6056 19.7663 10.6364 19.8971C11.1494 22.0738 13.6946 32.7467 14.8109 35.0061C15.9744 37.363 22.1707 39.4422 30.2901 39.7006C23.8273 38.7312 22.2705 36.1527 21.3846 34.0565Z" fill="url(#paint17_linear_1_218)"/>
    <path style="mix-blend-mode:overlay" opacity="0.14" d="M32.3569 34.7419C31.9228 32.8426 30.5733 18.0925 30.572 18.078C30.572 18.0775 30.572 18.0777 30.5719 18.0773C30.4845 17.1295 29.6848 16.4057 28.7332 16.4251C23.7408 16.5271 19.314 16.8778 16.0935 17.3883C16.0709 17.3919 16.0547 17.4113 16.0547 17.4342C16.0547 17.4628 16.0802 17.4846 16.1084 17.4802C16.4792 17.4227 16.8649 17.3674 17.2654 17.3143C17.8234 17.2403 18.3334 17.6252 18.4205 18.1813C19.1051 22.5482 20.7046 32.4317 21.3909 34.0572C22.2325 36.0452 23.6822 38.4729 29.3602 39.5417C30.0204 39.5768 30.6957 39.6001 31.3842 39.6101C31.3858 39.6101 31.3871 39.6114 31.3871 39.613C31.3871 39.6147 31.3884 39.616 31.3901 39.616C31.5133 39.616 31.6353 39.616 31.758 39.616C31.8806 39.616 32.002 39.616 32.1252 39.616C32.1269 39.616 32.1282 39.6147 32.1282 39.613C32.1282 39.6114 32.1295 39.6101 32.1311 39.6101C32.4335 39.6058 32.7333 39.5991 33.0306 39.59C33.7 39.5694 34.1023 38.8505 33.8009 38.2523C33.212 37.0836 32.5727 35.6857 32.3569 34.7419Z" fill="url(#paint18_linear_1_218)"/>
    <path opacity="0.19" d="M10.5449 19.3937C10.5469 19.5277 10.6058 19.6536 10.6365 19.784C10.6452 19.8211 10.6546 19.8607 10.6645 19.9027C11.1061 21.7741 13.1724 22.7672 15.0127 22.2099C26.4543 18.7455 45.6386 19.4114 48.6112 19.5389C48.8716 19.55 49.1125 19.4598 49.3074 19.2868C49.8896 18.7697 49.6731 17.8341 48.9101 17.6789C45.1003 16.9037 38.7779 16.3965 31.6221 16.3965C19.9818 16.3965 10.5449 17.7384 10.5449 19.3937Z" fill="#463000"/>
    <path opacity="0.19" d="M38.1981 25.5004C38.1007 25.1014 37.8336 24.7649 37.4672 24.5793L34.3953 23.0233C31.8694 21.7439 28.8852 21.7439 26.3593 23.0233L23.2875 24.5793C22.921 24.7649 22.654 25.1014 22.5565 25.5004C22.5229 25.6379 22.5103 25.7797 22.519 25.921L22.7023 28.8911C22.8698 31.6052 24.4584 34.0291 26.8802 35.2658C29.0767 36.3875 31.678 36.3875 33.8745 35.2658C36.2963 34.0291 37.8849 31.6052 38.0524 28.8911L38.2357 25.921C38.2444 25.7797 38.2317 25.6379 38.1981 25.5004Z" fill="#463000"/>
    <path d="M35.0627 34.5941C37.5697 33.2789 39.1928 30.7345 39.3285 27.9067L39.4339 25.7115C39.4449 25.4823 39.4096 25.2532 39.3302 25.0379C39.1647 24.5892 38.8187 24.2304 38.3764 24.0486L34.8291 22.5906C32.6343 21.6884 30.1722 21.6884 27.9773 22.5906L24.5952 23.9808C24.0554 24.2027 23.6542 24.6693 23.5158 25.2363C23.4755 25.4014 23.4585 25.5713 23.4652 25.7411L23.5557 28.0332C23.6671 30.853 25.2919 33.3931 27.8052 34.6765C30.0617 35.8288 32.7371 35.8141 34.9808 34.637L35.0627 34.5941Z" fill="url(#paint19_linear_1_218)"/>
    <path d="M35.5626 33.2593C37.4549 32.293 38.6962 30.399 38.8272 28.2782C38.975 25.8841 37.6848 23.6315 35.545 22.5476L34.7392 22.1395C32.6422 21.0773 30.1648 21.0773 28.0679 22.1395L27.2621 22.5476C25.1223 23.6315 23.8321 25.8841 23.9799 28.2782C24.1108 30.399 25.3521 32.293 27.2445 33.2593L27.9972 33.6437C30.1367 34.7362 32.6704 34.7362 34.8099 33.6437L35.5626 33.2593Z" fill="url(#paint20_linear_1_218)"/>
    <path style="mix-blend-mode:overlay" d="M34.733 22.1393C32.6363 21.0772 30.1591 21.0772 28.0623 22.1393L23.8689 24.2633C23.7849 24.3059 23.7342 24.3943 23.7401 24.4883C23.7505 24.6575 23.9308 24.7608 24.0821 24.6841L29.1713 22.1057C30.3045 21.5316 31.6434 21.5315 32.7765 22.1056L36.7012 24.0939C37.7454 24.6229 38.375 25.7221 38.3029 26.8905L38.0192 31.4913C38.0048 31.7241 38.2491 31.8842 38.4569 31.7782C38.5518 31.7298 38.6141 31.6348 38.6207 31.5284L38.8214 28.2774C38.9692 25.8838 37.6792 23.6315 35.5398 22.5479L34.733 22.1393Z" fill="url(#paint21_linear_1_218)"/>
    <path style="mix-blend-mode:overlay" d="M34.9188 22.2347C33.1545 21.341 31.0258 22.3872 30.6554 24.3298L30.2126 26.6521C30.0273 27.6244 30.5484 28.5937 31.4618 28.9752C32.1643 29.2686 32.9708 29.1574 33.5676 28.6848L35.421 27.2171C37.1215 25.8704 36.8538 23.2148 34.9188 22.2347Z" fill="url(#paint22_linear_1_218)"/>
    <path style="mix-blend-mode:overlay" d="M28.9819 25.1655C28.7226 25.6654 29.0806 26.2714 29.6437 26.2714C30.0727 26.2714 30.4145 26.6301 30.3938 27.0585L30.1635 31.834C30.1238 32.6556 30.7792 33.3434 31.6018 33.3434C32.4335 33.3434 33.0923 32.6407 33.0387 31.8107L32.7158 26.8032C32.6415 25.6498 31.6843 24.7523 30.5285 24.7523H29.6579C29.3742 24.7523 29.1125 24.9138 28.9819 25.1655Z" fill="url(#paint23_linear_1_218)"/>
    <path d="M28.9799 24.7869C28.7206 25.2868 29.0786 25.8928 29.6418 25.8928C30.0707 25.8928 30.4125 26.2515 30.3919 26.6799L30.1615 31.4554C30.1219 32.2769 30.7773 32.9647 31.5998 32.9647C32.4315 32.9647 33.0903 32.2621 33.0368 31.4321L32.7139 26.4246C32.6395 25.2712 31.6823 24.3737 30.5265 24.3737H29.6559C29.3723 24.3737 29.1105 24.5351 28.9799 24.7869Z" fill="url(#paint24_linear_1_218)"/>
    <path opacity="0.51" d="M28.9497 25.4215C29.0999 25.132 29.399 24.9502 29.7252 24.9502H30.5263C31.6822 24.9502 32.6395 25.8478 32.7138 27.0014L33.0968 32.9474C33.0974 32.9572 33.1055 32.9647 33.1153 32.9647C33.1259 32.9647 33.1344 32.9557 33.1337 32.9451L32.7137 26.4247C32.6394 25.2712 31.6823 24.3737 30.5264 24.3737H29.6559C29.3723 24.3737 29.1123 24.5317 28.9817 24.7835L28.5067 25.6991C28.4609 25.7874 28.525 25.8928 28.6245 25.8928C28.674 25.8928 28.7194 25.8652 28.7422 25.8212L28.9497 25.4215Z" fill="black"/>
    <path d="M31.622 11.8567C18.612 11.8567 8.06445 13.7529 8.06445 16.0923C8.06459 16.107 8.06514 16.1217 8.0661 16.1364C8.07635 16.294 8.10755 16.3221 8.13637 16.4775C8.48643 18.3644 10.8005 19.6175 12.6652 19.1637C16.9553 18.1195 23.8489 17.4423 31.6227 17.4423C39.3915 17.4423 46.2813 18.1186 50.572 19.1617C52.4408 19.616 54.7351 18.4827 55.0876 16.592C55.1018 16.5159 55.1144 16.448 55.1255 16.3886C55.1282 16.3742 55.132 16.3608 55.1367 16.347C55.1647 16.2643 55.1794 16.1786 55.1803 16.0923L-nan -nanL55.1803 16.0923C55.1796 13.754 44.6327 11.8567 31.622 11.8567Z" fill="url(#paint25_radial_1_218)"/>
    <path style="mix-blend-mode:screen" d="M43.7024 25.6204C51.7014 25.6204 58.1859 19.8851 58.1859 12.8102C58.1859 5.73533 51.7014 0 43.7024 0C35.7033 0 29.2188 5.73533 29.2188 12.8102C29.2188 19.8851 35.7033 25.6204 43.7024 25.6204Z" fill="url(#paint26_radial_1_218)"/>
    <path style="mix-blend-mode:overlay" d="M43.9069 12.4785C42.4151 12.3142 41.0863 13.3934 40.8904 14.8814L40.7498 15.9492C40.6247 16.8994 41.2923 17.7716 42.2422 17.8989C44.6717 18.1199 46.8599 18.414 48.7155 18.766C49.5287 18.8748 50.2935 18.3545 50.4908 17.5582L50.7573 16.4828C51.1278 14.9878 50.2406 13.4685 48.7274 13.1812C47.3028 12.9107 45.6824 12.6741 43.9069 12.4785Z" fill="url(#paint27_linear_1_218)"/>
    <path opacity="0.14" d="M23.4629 14.8001C23.3039 13.3138 21.9955 12.2141 20.5076 12.3576C13.102 13.0718 8.06445 14.4764 8.06445 16.0931C8.06459 16.1077 8.06514 16.1224 8.06608 16.137C8.0763 16.2948 8.10755 16.3229 8.13638 16.4784C8.48639 18.3661 10.7996 19.6191 12.665 19.1652C14.8185 18.6412 17.6277 18.21 20.8752 17.9111C22.4515 17.766 23.6312 16.3741 23.4629 14.8001Z" fill="#563A00"/>
    <path style="mix-blend-mode:overlay" d="M31.622 11.8567C18.612 11.8567 8.06445 13.7529 8.06445 16.0923C8.06533 16.1849 8.08237 16.2768 8.11496 16.3648C8.11566 16.3667 8.11614 16.3684 8.11648 16.3704C8.12153 16.4007 8.16454 16.4088 8.1793 16.3819C9.35216 14.24 19.4003 12.5659 31.622 12.5659C43.8439 12.5659 53.8921 14.2417 55.0648 16.3854C55.0795 16.4123 55.1225 16.4042 55.1276 16.3739C55.1279 16.3719 55.1284 16.3702 55.1291 16.3683C55.1617 16.2803 55.1787 16.1884 55.1796 16.0958L-nan -nanL55.1796 16.0958C55.1796 13.754 44.6327 11.8567 31.622 11.8567Z" fill="url(#paint28_linear_1_218)"/>
    <path opacity="0.2" d="M31.4554 16.6281C13.5229 16.6281 9.59816 19.0657 8.87878 20.1418C8.85313 20.1802 8.84639 20.2255 8.85484 20.2709C8.87976 20.4048 9.03207 20.4711 9.15034 20.4036C12.1587 18.6868 21.0809 17.442 31.6213 17.442C42.1624 17.442 51.0852 18.687 54.0929 20.404C54.2109 20.4714 54.3627 20.4052 54.3876 20.2717C54.3961 20.2258 54.3892 20.1801 54.3627 20.1417C53.6244 19.0723 49.411 16.6281 31.4554 16.6281Z" fill="#563000"/>
    <path d="M54.2663 20.33C53.8214 19.505 50.1306 17.2369 31.4551 17.2369C12.7796 17.2369 9.41868 19.505 8.97311 20.33C8.681 20.8709 9.65501 21.1755 10.3606 21.3212C10.683 21.3878 10.9466 21.0929 10.8697 20.7728C10.8102 20.5253 10.9542 20.2749 11.2003 20.2095C17.5715 18.5136 27.9428 18.3449 31.6184 18.342C35.294 18.3392 45.6654 18.5139 52.0366 20.2095C52.2826 20.275 52.4266 20.5252 52.3671 20.7727C52.2902 21.0928 52.554 21.3876 52.8764 21.3209C53.5827 21.1749 54.5585 20.8699 54.2663 20.33Z" fill="url(#paint29_linear_1_218)"/>
    <path d="M7.22886 22.3297C6.96927 22.3013 6.71302 22.4066 6.54849 22.6094C6.4789 22.6952 6.42862 22.7949 6.40107 22.9019L1.26675 42.836C0.752586 44.8323 2.76392 46.5439 4.65223 45.717L4.76963 45.6656C5.56504 45.3173 6.48953 45.4539 7.15026 46.0173C8.63535 47.2837 10.9201 46.2067 10.8884 44.2552L10.5475 23.2718C10.5467 23.2169 10.5389 23.1624 10.5245 23.1095C10.4534 22.8489 10.2302 22.6583 9.96169 22.6289L7.22886 22.3297Z" fill="url(#paint30_linear_1_218)"/>
    <path d="M8.06754 22.4223C7.80667 22.3938 7.55058 22.5075 7.39667 22.7201C7.33718 22.8022 7.29545 22.8958 7.27414 22.995L3.37621 41.1309C3.10441 42.3955 4.36946 43.4421 5.56076 42.9382L5.68307 42.8865C6.1697 42.6807 6.73105 42.7697 7.13011 43.116C8.01572 43.8845 9.39601 43.2733 9.42213 42.101L9.84348 23.1895C9.84449 23.1441 9.84054 23.0987 9.8317 23.0542C9.77864 22.7868 9.5582 22.5848 9.28724 22.5553L8.06754 22.4223Z" fill="url(#paint31_linear_1_218)"/>
    <g opacity="0.41">
      <path d="M6.23971 42.3561C6.18535 42.309 6.10888 42.2968 6.04259 42.3249L2.91792 43.6465C2.86133 43.6704 2.81994 43.7204 2.80699 43.7805C2.77479 43.9298 2.9242 44.0535 3.06492 43.994L6.18956 42.6723C6.31811 42.6179 6.34513 42.4476 6.23971 42.3561Z" fill="#620000"/>
      <path d="M9.76174 22.7013C9.75035 22.6439 9.70303 22.6006 9.64485 22.5942C9.55498 22.5844 9.48141 22.6646 9.4989 22.7533L9.51381 22.8289C9.51648 22.8424 9.51767 22.8562 9.51737 22.87L9.03104 44.6861C9.02994 44.7357 9.05102 44.7833 9.08854 44.8158C9.19519 44.9082 9.36128 44.8346 9.36443 44.6935L9.84354 23.1895C9.84455 23.1441 9.8406 23.0987 9.83176 23.0541L9.76174 22.7013Z" fill="#620000"/>
    </g>
    <path d="M6.72628 22.3884C6.60332 22.54 6.69686 22.7675 6.89087 22.7888L10.1846 23.1497C10.3575 23.1687 10.4952 23.0075 10.4494 22.8396C10.4228 22.7418 10.339 22.6703 10.2383 22.6593L6.94455 22.2987C6.86127 22.2896 6.77906 22.3234 6.72628 22.3884Z" fill="white"/>
    <path d="M55.7249 22.3051C55.9848 22.2766 56.2414 22.3821 56.406 22.5853C56.4755 22.671 56.5257 22.7707 56.5532 22.8776L61.6875 42.8115C62.2017 44.808 60.1902 46.5198 58.3017 45.6929L58.1839 45.6413C57.3886 45.2931 56.4642 45.4297 55.8036 45.9931C54.3188 47.2594 52.0342 46.1826 52.0659 44.2314L52.4068 23.2472C52.4077 23.1926 52.4153 23.1384 52.4296 23.0858C52.5004 22.8249 52.7236 22.6341 52.9922 22.6046L55.7249 22.3051Z" fill="url(#paint32_linear_1_218)"/>
    <path d="M54.879 22.3987C55.1399 22.3703 55.396 22.4839 55.5499 22.6965C55.6094 22.7786 55.6511 22.8723 55.6724 22.9714L59.5699 41.1078C59.8416 42.3722 58.5767 43.4185 57.3857 42.9147L57.2635 42.863C56.7769 42.6571 56.2155 42.7462 55.8164 43.0925C54.9308 43.861 53.5506 43.2497 53.5244 42.0775L53.1031 23.166C53.1021 23.1205 53.106 23.0751 53.1149 23.0306C53.1679 22.7632 53.3884 22.5612 53.6593 22.5317L54.879 22.3987Z" fill="url(#paint33_linear_1_218)"/>
    <path opacity="0.24" d="M55.6744 22.9714C55.6531 22.8723 55.6114 22.7787 55.5519 22.6965L55.362 22.4342C55.3255 22.3838 55.2648 22.3569 55.2029 22.3637L55.0749 22.3777C55.0002 22.3859 54.9621 22.4716 55.006 22.5325C55.0139 22.5435 55.0195 22.556 55.0223 22.5693L58.9478 40.8354C59.2195 42.0997 57.9547 43.1461 56.7637 42.6422C56.2022 42.4047 55.5546 42.5075 55.0942 42.9071L53.6832 44.1318C53.6142 44.1917 53.5754 44.2793 53.5774 44.3707C53.5833 44.6308 53.8895 44.7664 54.086 44.5959L55.8183 43.0925C56.2175 42.7462 56.7789 42.6571 57.2656 42.863L57.3876 42.9147C58.5787 43.4185 59.8436 42.3722 59.5719 41.1078L55.6744 22.9714Z" fill="#620000"/>
    <path d="M56.2248 22.364C56.3478 22.5157 56.2541 22.7434 56.0599 22.7647L52.766 23.1256C52.5932 23.1446 52.4555 22.9836 52.501 22.8157C52.5276 22.7178 52.6114 22.6462 52.7123 22.6351L56.0062 22.274C56.0896 22.2649 56.172 22.2988 56.2248 22.364Z" fill="white"/>
    <path d="M37.544 27.8785C53.564 27.8785 66.5508 22.0809 66.5508 14.9292C66.5508 7.77742 53.564 1.9798 37.544 1.9798C21.5239 1.9798 8.53711 7.77742 8.53711 14.9292C8.53711 22.0809 21.5239 27.8785 37.544 27.8785Z" fill="url(#paint34_radial_1_218)" style="mix-blend-mode:screen"/>
    <path d="M34.71 37.1814C50.73 37.1814 63.7169 31.3838 63.7169 24.2321C63.7169 17.0803 50.73 11.2827 34.71 11.2827C18.6899 11.2827 5.70312 17.0803 5.70312 24.2321C5.70312 31.3838 18.6899 37.1814 34.71 37.1814Z" fill="url(#paint35_radial_1_218)" style="mix-blend-mode:screen"/>
    <g opacity="0.72">
      <path d="M66.8551 53.3014C69.6965 51.811 69.2494 46.5008 65.8566 41.4407C62.4638 36.3806 57.4099 33.4868 54.5686 34.9772C51.7272 36.4676 52.1743 41.7778 55.5671 46.8379C58.9599 51.898 64.0138 54.7918 66.8551 53.3014Z" fill="url(#paint36_radial_1_218)" style="mix-blend-mode:screen"/>
    </g>
    <path d="M49.6665 22.3737C44.7256 24.1132 38.9993 22.193 36.8766 18.0855C34.7539 13.978 37.03 9.23663 41.9709 7.49481C46.9118 5.75298 52.6374 7.67782 54.7608 11.7836C56.8842 15.8894 54.6067 20.6348 49.6665 22.3737Z" fill="url(#paint37_radial_1_218)" style="mix-blend-mode:screen"/>
    <path d="M32.8702 25.7552C32.3532 25.2991 35.3704 21.8435 39.6085 18.0371C43.8467 14.2307 47.7048 11.5177 48.2218 11.9738C48.7387 12.4299 45.7235 15.8843 41.484 19.6918C37.2445 23.4994 33.3898 26.213 32.8702 25.7552Z" fill="url(#paint38_radial_1_218)" style="mix-blend-mode:screen"/>
    <path d="M59.0784 2.57749C58.5621 2.11967 54.6565 4.78766 50.3522 8.53618C46.0479 12.2847 42.9818 15.697 43.4981 16.1542C44.0144 16.6115 47.9188 13.9452 52.2244 10.1961C56.53 6.44704 59.5954 3.03707 59.0784 2.57749Z" fill="url(#paint39_radial_1_218)" style="mix-blend-mode:screen"/>
    <path d="M58.2877 25.0586C57.7072 25.5743 53.9589 23.1461 49.9177 19.6349C45.8766 16.1238 43.0723 12.8606 43.6547 12.3455C44.2371 11.8303 47.9821 14.2557 52.0239 17.7668C56.0658 21.2779 58.8727 24.5447 58.2877 25.0586Z" fill="url(#paint40_radial_1_218)" style="mix-blend-mode:screen"/>
    <path d="M33.721 3.32274C33.1366 3.83552 35.8827 7.15077 39.8518 10.7245C43.8209 14.2982 47.5111 16.779 48.0942 16.2651C48.6772 15.7511 45.9344 12.4365 41.9646 8.86161C37.9948 5.28675 34.304 2.80703 33.721 3.32274Z" fill="url(#paint41_radial_1_218)" style="mix-blend-mode:screen"/>
    <defs>
      <linearGradient id="paint0_linear_1_218" x1="39.3061" y1="48.9289" x2="18.663" y2="46.785" gradientUnits="userSpaceOnUse">
        <stop stop-color="#FFFF46"/>
        <stop offset="0.1" stop-color="#EFE53B"/>
        <stop offset="0.32" stop-color="#D1B326"/>
        <stop offset="0.53" stop-color="#B98C16"/>
        <stop offset="0.71" stop-color="#A86F0A"/>
        <stop offset="0.88" stop-color="#9E5E03"/>
        <stop offset="1" stop-color="#9A5800"/>
      </linearGradient>
      <linearGradient id="paint1_linear_1_218" x1="40.5476" y1="49.6842" x2="23.4012" y2="49.6842" gradientUnits="userSpaceOnUse">
        <stop stop-color="#FEFEFF"/>
        <stop offset="1" stop-color="white"/>
      </linearGradient>
      <linearGradient id="paint2_linear_1_218" x1="41.1249" y1="50.8039" x2="13.8435" y2="50.8039" gradientUnits="userSpaceOnUse">
        <stop stop-color="#DAAA00"/>
        <stop offset="1" stop-color="#5E3000"/>
      </linearGradient>
      <linearGradient id="paint3_linear_1_218" x1="38.1383" y1="43.2281" x2="23.2045" y2="43.2281" gradientUnits="userSpaceOnUse">
        <stop stop-color="#F6B83A"/>
        <stop offset="0.03" stop-color="#F1B438"/>
        <stop offset="0.35" stop-color="#BC8020"/>
        <stop offset="0.63" stop-color="#955B0F"/>
        <stop offset="0.85" stop-color="#7D4404"/>
        <stop offset="0.99" stop-color="#743C00"/>
      </linearGradient>
      <linearGradient id="paint4_linear_1_218" x1="34.7124" y1="37.7637" x2="34.7124" y2="45.5917" gradientUnits="userSpaceOnUse">
        <stop stop-color="#FEFEBE"/>
        <stop offset="1" stop-color="white"/>
      </linearGradient>
      <linearGradient id="paint5_linear_1_218" x1="28.9658" y1="37.648" x2="28.9658" y2="62.7931" gradientUnits="userSpaceOnUse">
        <stop/>
        <stop offset="1"/>
      </linearGradient>
      <linearGradient id="paint6_linear_1_218" x1="46.0067" y1="41.0313" x2="16.6554" y2="37.6639" gradientUnits="userSpaceOnUse">
        <stop offset="0.09" stop-color="#F6E23A"/>
        <stop offset="0.6" stop-color="#B46E00"/>
        <stop offset="1" stop-color="#4C2A00"/>
      </linearGradient>
      <linearGradient id="paint7_linear_1_218" x1="26.1835" y1="38.3715" x2="26.1835" y2="45.7299" gradientUnits="userSpaceOnUse">
        <stop/>
        <stop offset="1"/>
      </linearGradient>
      <linearGradient id="paint8_linear_1_218" x1="9.50712" y1="22.6067" x2="6.82278" y2="38.3115" gradientUnits="userSpaceOnUse">
        <stop stop-color="#885C00"/>
        <stop offset="0.36" stop-color="#855A00"/>
        <stop offset="0.64" stop-color="#7B5200"/>
        <stop offset="0.88" stop-color="#6B4500"/>
        <stop offset="1" stop-color="#603C00"/>
      </linearGradient>
      <linearGradient id="paint9_linear_1_218" x1="5.99943" y1="16.7104" x2="8.44053" y2="44.1168" gradientUnits="userSpaceOnUse">
        <stop offset="0.01" stop-color="#F6E220"/>
        <stop offset="0.12" stop-color="#FFFF5C"/>
        <stop offset="0.6" stop-color="#B46E00"/>
        <stop offset="1" stop-color="#4C2A00"/>
      </linearGradient>
      <linearGradient id="paint10_linear_1_218" x1="55.263" y1="12.1453" x2="55.263" y2="52.399" gradientUnits="userSpaceOnUse">
        <stop offset="0.6" stop-color="#B46E00"/>
        <stop offset="1" stop-color="#4C2A00"/>
      </linearGradient>
      <linearGradient id="paint11_linear_1_218" x1="55.4869" y1="20.1192" x2="55.4869" y2="54.1874" gradientUnits="userSpaceOnUse">
        <stop offset="0.09" stop-color="#FFFF4C"/>
        <stop offset="0.6" stop-color="#B46E00"/>
        <stop offset="1" stop-color="#4C2A00"/>
      </linearGradient>
      <radialGradient id="paint12_radial_1_218" cx="0" cy="0" r="1" gradientUnits="userSpaceOnUse" gradientTransform="translate(37.9136 21.5589) scale(28.1349 24.8843)">
        <stop stop-color="#FEFEBE"/>
        <stop offset="0.29" stop-color="#F6DA3A"/>
        <stop offset="0.71" stop-color="#D29400"/>
        <stop offset="1" stop-color="#94681A"/>
      </radialGradient>
      <radialGradient id="paint13_radial_1_218" cx="0" cy="0" r="1" gradientUnits="userSpaceOnUse" gradientTransform="translate(39.7601 21.1416) scale(16.5534 14.6409)">
        <stop offset="0.01" stop-color="#FEFE60"/>
        <stop offset="0.04" stop-color="#E2E255"/>
        <stop offset="0.1" stop-color="#B3B344"/>
        <stop offset="0.17" stop-color="#888833"/>
        <stop offset="0.24" stop-color="#636326"/>
        <stop offset="0.32" stop-color="#44441A"/>
        <stop offset="0.41" stop-color="#2B2B10"/>
        <stop offset="0.5" stop-color="#181809"/>
        <stop offset="0.61" stop-color="#0A0A04"/>
        <stop offset="0.74" stop-color="#020201"/>
        <stop offset="1"/>
      </radialGradient>
      <radialGradient id="paint14_radial_1_218" cx="0" cy="0" r="1" gradientUnits="userSpaceOnUse" gradientTransform="translate(39.596 19.4421) scale(16.5534 14.6409)">
        <stop offset="0.01" stop-color="#FEFE60"/>
        <stop offset="0.04" stop-color="#E2E255"/>
        <stop offset="0.1" stop-color="#B3B344"/>
        <stop offset="0.17" stop-color="#888833"/>
        <stop offset="0.24" stop-color="#636326"/>
        <stop offset="0.32" stop-color="#44441A"/>
        <stop offset="0.41" stop-color="#2B2B10"/>
        <stop offset="0.5" stop-color="#181809"/>
        <stop offset="0.61" stop-color="#0A0A04"/>
        <stop offset="0.74" stop-color="#020201"/>
        <stop offset="1"/>
      </radialGradient>
      <radialGradient id="paint15_radial_1_218" cx="0" cy="0" r="1" gradientUnits="userSpaceOnUse" gradientTransform="translate(32.2894 17.7384) scale(16.5534 14.6409)">
        <stop offset="0.01" stop-color="#FE9800"/>
        <stop offset="0.04" stop-color="#E28700"/>
        <stop offset="0.1" stop-color="#B36B00"/>
        <stop offset="0.17" stop-color="#885100"/>
        <stop offset="0.24" stop-color="#633B00"/>
        <stop offset="0.32" stop-color="#442900"/>
        <stop offset="0.41" stop-color="#2B1A00"/>
        <stop offset="0.5" stop-color="#180E00"/>
        <stop offset="0.61" stop-color="#0A0600"/>
        <stop offset="0.74" stop-color="#020100"/>
        <stop offset="1"/>
      </radialGradient>
      <linearGradient id="paint16_linear_1_218" x1="36.0726" y1="18.1245" x2="36.0726" y2="33.0993" gradientUnits="userSpaceOnUse">
        <stop stop-color="#FEFEBE"/>
        <stop offset="1" stop-color="white"/>
      </linearGradient>
      <linearGradient id="paint17_linear_1_218" x1="20.4175" y1="24.0757" x2="20.4175" y2="37.1385" gradientUnits="userSpaceOnUse">
        <stop/>
        <stop offset="1"/>
      </linearGradient>
      <linearGradient id="paint18_linear_1_218" x1="25.2615" y1="18.2458" x2="25.2615" y2="37.4199" gradientUnits="userSpaceOnUse">
        <stop/>
        <stop offset="1"/>
      </linearGradient>
      <linearGradient id="paint19_linear_1_218" x1="39.4215" y1="27.6626" x2="28.9473" y2="29.6425" gradientUnits="userSpaceOnUse">
        <stop stop-color="#BA8A00"/>
        <stop offset="0.35" stop-color="#B88700"/>
        <stop offset="0.61" stop-color="#B27D00"/>
        <stop offset="0.85" stop-color="#A86D00"/>
        <stop offset="1" stop-color="#9E5E00"/>
      </linearGradient>
      <linearGradient id="paint20_linear_1_218" x1="37.7671" y1="19.9085" x2="18.5813" y2="50.081" gradientUnits="userSpaceOnUse">
        <stop stop-color="#FEFEBE"/>
        <stop offset="0.39" stop-color="#F6DA3A"/>
        <stop offset="0.75" stop-color="#D27C00"/>
        <stop offset="1" stop-color="#9A6E1A"/>
      </linearGradient>
      <linearGradient id="paint21_linear_1_218" x1="23.7305" y1="26.2337" x2="39.0649" y2="26.2337" gradientUnits="userSpaceOnUse">
        <stop stop-color="#FEFEBE"/>
        <stop offset="1" stop-color="white"/>
      </linearGradient>
      <linearGradient id="paint22_linear_1_218" x1="35.6697" y1="21.3059" x2="33.901" y2="26.8705" gradientUnits="userSpaceOnUse">
        <stop stop-color="#FEFEBE"/>
        <stop offset="1" stop-color="white"/>
      </linearGradient>
      <linearGradient id="paint23_linear_1_218" x1="30.7729" y1="32.844" x2="30.7729" y2="25.6464" gradientUnits="userSpaceOnUse">
        <stop stop-color="#FEFEBE"/>
        <stop offset="1" stop-color="white"/>
      </linearGradient>
      <linearGradient id="paint24_linear_1_218" x1="30.7709" y1="32.4654" x2="30.7709" y2="25.2677" gradientUnits="userSpaceOnUse">
        <stop stop-color="#885C00"/>
        <stop offset="0.36" stop-color="#855A00"/>
        <stop offset="0.64" stop-color="#7B5200"/>
        <stop offset="0.88" stop-color="#6B4500"/>
        <stop offset="1" stop-color="#603C00"/>
      </linearGradient>
      <radialGradient id="paint25_radial_1_218" cx="0" cy="0" r="1" gradientUnits="userSpaceOnUse" gradientTransform="translate(43.4454 15.331) scale(42.4552 37.5501)">
        <stop stop-color="#FEFEBE"/>
        <stop offset="0.39" stop-color="#F6DA3A"/>
        <stop offset="0.75" stop-color="#D27C00"/>
        <stop offset="1" stop-color="#9A6E1A"/>
      </radialGradient>
      <radialGradient id="paint26_radial_1_218" cx="0" cy="0" r="1" gradientUnits="userSpaceOnUse" gradientTransform="translate(43.7023 12.9055) scale(14.3957 12.7324)">
        <stop offset="0.01" stop-color="#FEFE00"/>
        <stop offset="0.04" stop-color="#E2E200"/>
        <stop offset="0.1" stop-color="#B3B300"/>
        <stop offset="0.17" stop-color="#888800"/>
        <stop offset="0.24" stop-color="#636300"/>
        <stop offset="0.32" stop-color="#444400"/>
        <stop offset="0.41" stop-color="#2B2B00"/>
        <stop offset="0.5" stop-color="#181800"/>
        <stop offset="0.61" stop-color="#0A0A00"/>
        <stop offset="0.74" stop-color="#020200"/>
        <stop offset="1"/>
      </radialGradient>
      <linearGradient id="paint27_linear_1_218" x1="45.9721" y1="12.0004" x2="45.9721" y2="18.0977" gradientUnits="userSpaceOnUse">
        <stop stop-color="#FEFEBE"/>
        <stop offset="1" stop-color="white"/>
      </linearGradient>
      <linearGradient id="paint28_linear_1_218" x1="8.06445" y1="14.1663" x2="55.1796" y2="14.1663" gradientUnits="userSpaceOnUse">
        <stop stop-color="#FEFEFF"/>
        <stop offset="0.12" stop-color="#FEFEFF"/>
        <stop offset="0.54" stop-color="#FEFEFF"/>
        <stop offset="1" stop-color="#FEFEFF"/>
      </linearGradient>
      <linearGradient id="paint29_linear_1_218" x1="45.2525" y1="19.3337" x2="24.1601" y2="19.3337" gradientUnits="userSpaceOnUse">
        <stop stop-color="#D8A200"/>
        <stop offset="0.17" stop-color="#D39D00"/>
        <stop offset="0.4" stop-color="#C39000"/>
        <stop offset="0.64" stop-color="#A97A00"/>
        <stop offset="0.9" stop-color="#865B00"/>
        <stop offset="1" stop-color="#764E00"/>
      </linearGradient>
      <linearGradient id="paint30_linear_1_218" x1="5.48499" y1="44.936" x2="5.48499" y2="29.9431" gradientUnits="userSpaceOnUse">
        <stop stop-color="#EC2A48"/>
        <stop offset="1" stop-color="#E44846"/>
      </linearGradient>
      <linearGradient id="paint31_linear_1_218" x1="6.28773" y1="23.2411" x2="6.28773" y2="40.5844" gradientUnits="userSpaceOnUse">
        <stop stop-color="#D03826"/>
        <stop offset="1" stop-color="#BA0A26"/>
      </linearGradient>
      <linearGradient id="paint32_linear_1_218" x1="57.4694" y1="44.9118" x2="57.4694" y2="29.9189" gradientUnits="userSpaceOnUse">
        <stop stop-color="#EC2A48"/>
        <stop offset="1" stop-color="#E44846"/>
      </linearGradient>
      <linearGradient id="paint33_linear_1_218" x1="56.6582" y1="23.2175" x2="56.6582" y2="40.5609" gradientUnits="userSpaceOnUse">
        <stop stop-color="#D03826"/>
        <stop offset="1" stop-color="#BA0A26"/>
      </linearGradient>
      <radialGradient id="paint34_radial_1_218" cx="0" cy="0" r="1" gradientUnits="userSpaceOnUse" gradientTransform="translate(37.4899 15.0251) scale(28.8137 12.871)">
        <stop stop-color="#FE7000"/>
        <stop offset="0.03" stop-color="#E26300"/>
        <stop offset="0.1" stop-color="#B34F00"/>
        <stop offset="0.17" stop-color="#883C00"/>
        <stop offset="0.24" stop-color="#632C00"/>
        <stop offset="0.32" stop-color="#441E00"/>
        <stop offset="0.4" stop-color="#2B1300"/>
        <stop offset="0.5" stop-color="#180B00"/>
        <stop offset="0.61" stop-color="#0A0500"/>
        <stop offset="0.74" stop-color="#020100"/>
        <stop offset="1"/>
      </radialGradient>
      <radialGradient id="paint35_radial_1_218" cx="0" cy="0" r="1" gradientUnits="userSpaceOnUse" gradientTransform="translate(34.6568 24.328) scale(28.8137 12.871)">
        <stop stop-color="#FE7000"/>
        <stop offset="0.03" stop-color="#E26300"/>
        <stop offset="0.1" stop-color="#B34F00"/>
        <stop offset="0.17" stop-color="#883C00"/>
        <stop offset="0.24" stop-color="#632C00"/>
        <stop offset="0.32" stop-color="#441E00"/>
        <stop offset="0.4" stop-color="#2B1300"/>
        <stop offset="0.5" stop-color="#180B00"/>
        <stop offset="0.61" stop-color="#0A0500"/>
        <stop offset="0.74" stop-color="#020100"/>
        <stop offset="1"/>
      </radialGradient>
      <radialGradient id="paint36_radial_1_218" cx="0" cy="0" r="1" gradientUnits="userSpaceOnUse" gradientTransform="translate(60.5782 45.0239) rotate(-27.6787) scale(5.74697 10.9373)">
        <stop stop-color="#B80000"/>
        <stop offset="0.01" stop-color="#B10000"/>
        <stop offset="0.08" stop-color="#880000"/>
        <stop offset="0.16" stop-color="#630000"/>
        <stop offset="0.25" stop-color="#440000"/>
        <stop offset="0.34" stop-color="#2B0000"/>
        <stop offset="0.45" stop-color="#180000"/>
        <stop offset="0.57" stop-color="#0A0000"/>
        <stop offset="0.72" stop-color="#020000"/>
        <stop offset="1"/>
      </radialGradient>
      <radialGradient id="paint37_radial_1_218" cx="0" cy="0" r="1" gradientUnits="userSpaceOnUse" gradientTransform="translate(45.7928 14.9173) rotate(62.6992) scale(8.36176 9.39676)">
        <stop stop-color="white"/>
        <stop offset="0.09" stop-color="#FFD990"/>
        <stop offset="0.18" stop-color="#FFB629"/>
        <stop offset="0.22" stop-color="#FFA800"/>
        <stop offset="0.25" stop-color="#E49600"/>
        <stop offset="0.3" stop-color="#B47700"/>
        <stop offset="0.35" stop-color="#895B00"/>
        <stop offset="0.41" stop-color="#644200"/>
        <stop offset="0.47" stop-color="#452D00"/>
        <stop offset="0.54" stop-color="#2C1D00"/>
        <stop offset="0.61" stop-color="#181000"/>
        <stop offset="0.7" stop-color="#0A0700"/>
        <stop offset="0.81" stop-color="#020200"/>
        <stop offset="1"/>
      </radialGradient>
      <radialGradient id="paint38_radial_1_218" cx="0" cy="0" r="1" gradientUnits="userSpaceOnUse" gradientTransform="translate(40.9167 18.9959) rotate(137.989) scale(10.3069 1.2464)">
        <stop stop-color="#FFFF00"/>
        <stop offset="0.01" stop-color="#F4ED04"/>
        <stop offset="0.04" stop-color="#DEC50D"/>
        <stop offset="0.07" stop-color="#CCA615"/>
        <stop offset="0.1" stop-color="#BF901A"/>
        <stop offset="0.13" stop-color="#B8831D"/>
        <stop offset="0.15" stop-color="#B57E1E"/>
        <stop offset="0.21" stop-color="#976919"/>
        <stop offset="0.29" stop-color="#6F4D12"/>
        <stop offset="0.38" stop-color="#4D350D"/>
        <stop offset="0.47" stop-color="#312208"/>
        <stop offset="0.57" stop-color="#1B1304"/>
        <stop offset="0.68" stop-color="#0C0802"/>
        <stop offset="0.81" stop-color="#030200"/>
        <stop offset="1"/>
      </radialGradient>
      <radialGradient id="paint39_radial_1_218" cx="0" cy="0" r="1" gradientUnits="userSpaceOnUse" gradientTransform="translate(51.4484 9.70878) rotate(-40.9736) scale(10.3299 1.24363)">
        <stop stop-color="#FFFF00"/>
        <stop offset="0.01" stop-color="#F4ED04"/>
        <stop offset="0.04" stop-color="#DEC50D"/>
        <stop offset="0.07" stop-color="#CCA615"/>
        <stop offset="0.1" stop-color="#BF901A"/>
        <stop offset="0.13" stop-color="#B8831D"/>
        <stop offset="0.15" stop-color="#B57E1E"/>
        <stop offset="0.21" stop-color="#976919"/>
        <stop offset="0.29" stop-color="#6F4D12"/>
        <stop offset="0.38" stop-color="#4D350D"/>
        <stop offset="0.47" stop-color="#312208"/>
        <stop offset="0.57" stop-color="#1B1304"/>
        <stop offset="0.68" stop-color="#0C0802"/>
        <stop offset="0.81" stop-color="#030200"/>
        <stop offset="1"/>
      </radialGradient>
      <radialGradient id="paint40_radial_1_218" cx="0" cy="0" r="1" gradientUnits="userSpaceOnUse" gradientTransform="translate(51.6095 18.4995) rotate(40.9401) scale(9.70403 1.36808)">
        <stop stop-color="#FFFF00"/>
        <stop offset="0.01" stop-color="#F4ED04"/>
        <stop offset="0.04" stop-color="#DEC50D"/>
        <stop offset="0.07" stop-color="#CCA615"/>
        <stop offset="0.1" stop-color="#BF901A"/>
        <stop offset="0.13" stop-color="#B8831D"/>
        <stop offset="0.15" stop-color="#B57E1E"/>
        <stop offset="0.21" stop-color="#976919"/>
        <stop offset="0.29" stop-color="#6F4D12"/>
        <stop offset="0.38" stop-color="#4D350D"/>
        <stop offset="0.47" stop-color="#312208"/>
        <stop offset="0.57" stop-color="#1B1304"/>
        <stop offset="0.68" stop-color="#0C0802"/>
        <stop offset="0.81" stop-color="#030200"/>
        <stop offset="1"/>
      </radialGradient>
      <radialGradient id="paint41_radial_1_218" cx="0" cy="0" r="1" gradientUnits="userSpaceOnUse" gradientTransform="translate(41.074 9.27416) rotate(-137.956) scale(9.67967 1.37114)">
        <stop stop-color="#FFFF00"/>
        <stop offset="0.01" stop-color="#F4ED04"/>
        <stop offset="0.04" stop-color="#DEC50D"/>
        <stop offset="0.07" stop-color="#CCA615"/>
        <stop offset="0.1" stop-color="#BF901A"/>
        <stop offset="0.13" stop-color="#B8831D"/>
        <stop offset="0.15" stop-color="#B57E1E"/>
        <stop offset="0.21" stop-color="#976919"/>
        <stop offset="0.29" stop-color="#6F4D12"/>
        <stop offset="0.38" stop-color="#4D350D"/>
        <stop offset="0.47" stop-color="#312208"/>
        <stop offset="0.57" stop-color="#1B1304"/>
        <stop offset="0.68" stop-color="#0C0802"/>
        <stop offset="0.81" stop-color="#030200"/>
        <stop offset="1"/>
      </radialGradient>
    </defs>
  </svg>