<svg xmlns="http://www.w3.org/2000/svg" width="72" height="56" viewBox="0 0 72 56" fill="none">
    <path
        d="M31.9083 44.7306L29.3461 44.8802L26.784 44.7306C26.784 44.7306 22.3115 44.9637 18.5371 47.4013C18.5371 47.4013 21.1305 48.3245 29.3461 48.3245C37.5618 48.3245 40.1551 47.4013 40.1551 47.4013C36.3808 44.9637 31.9083 44.7306 31.9083 44.7306Z"
        fill="url(#paint0_linear_1_142)" />
    <path style="mix-blend-mode:overlay" opacity="0.54"
        d="M29.3404 48.0166C22.7661 48.0166 19.7932 47.426 18.8652 47.1898C18.7523 47.2585 18.6394 47.3283 18.5273 47.4013C18.5273 47.4013 21.1207 48.3245 29.3364 48.3245C37.552 48.3245 40.1454 47.4013 40.1454 47.4013C40.0333 47.3283 39.9204 47.2585 39.8067 47.1898C38.8867 47.426 35.9138 48.0166 29.3404 48.0166Z"
        fill="url(#paint1_linear_1_142)" />
    <path
        d="M40.149 47.4062C39.9721 47.4681 37.2818 48.3264 29.3456 48.3264C21.1268 48.3264 18.5366 47.4031 18.5366 47.4031L17.9297 48.9763C17.9297 48.9763 21.2925 50.0392 29.2343 50.0584H29.4537C37.3939 50.0392 40.7583 48.9763 40.7583 48.9763L40.149 47.4062Z"
        fill="url(#paint2_linear_1_142)" />
    <path style="mix-blend-mode:screen"
        d="M32.9958 53.1596C39.8016 52.7349 45.1222 50.5122 44.8798 48.195C44.6373 45.8779 38.9236 44.3438 32.1179 44.7686C25.3121 45.1933 19.9915 47.4161 20.2339 49.7332C20.4764 52.0503 26.1901 53.5844 32.9958 53.1596Z"
        fill="url(#paint3_radial_1_142)" />
    <path style="mix-blend-mode:overlay" opacity="0.43"
        d="M32.1921 44.7534C32.0088 44.7361 31.9063 44.7306 31.9063 44.7306L29.3442 44.8802L26.782 44.7306C26.782 44.7306 22.3095 44.9637 18.5352 47.4013C23.4705 45.9172 30.2842 45.6643 30.2842 45.6643L32.1921 44.7534Z"
        fill="url(#paint4_linear_1_142)" />
    <path
        d="M33.8622 38.8165C33.4314 38.7467 32.0126 38.631 30.1943 38.6069H30.0902C30.0101 38.6069 29.9301 38.6069 29.846 38.6069H29.6795H29.2927H29.1262C29.0461 38.6069 28.9661 38.6069 28.886 38.6069H28.7819C26.9628 38.6323 25.544 38.7467 25.1141 38.8165C25.0172 38.827 24.9203 38.8369 24.8242 38.8487L26.4055 45.1183C26.4055 45.1183 27.0092 45.5666 28.7619 45.6748H28.8107H28.8163C29.0245 45.6878 29.2479 45.6946 29.4857 45.694C29.7235 45.6934 29.9477 45.6878 30.1551 45.6748H30.1615H30.2103C31.963 45.5666 32.5667 45.1183 32.5667 45.1183L34.1512 38.8487C34.0551 38.8369 33.959 38.827 33.8622 38.8165Z"
        fill="url(#paint5_linear_1_142)" />
    <path style="mix-blend-mode:overlay" opacity="0.37"
        d="M30.9688 45.5982C32.1377 45.4325 32.5653 45.1183 32.5653 45.1183L34.1498 38.8487C34.0545 38.837 33.9576 38.8271 33.8608 38.8166C33.5829 38.7714 32.8904 38.7078 31.9456 38.6614L31.269 38.9736L30.9688 45.5982Z"
        fill="url(#paint6_linear_1_142)" />
    <path style="mix-blend-mode:overlay" opacity="0.43"
        d="M29.1991 38.6032H29.1262C29.0461 38.6032 28.9661 38.6032 28.886 38.6032H28.7819C26.9628 38.6286 25.544 38.743 25.1141 38.8128C25.0172 38.8233 24.9203 38.8332 24.8242 38.845L26.4055 45.1183C26.4055 45.1183 27.0092 45.5666 28.7619 45.6748H28.8107H28.8163C28.9765 45.6847 29.1502 45.6897 29.3288 45.6921L29.1991 38.6032Z"
        fill="url(#paint7_linear_1_142)" />
    <path style="mix-blend-mode:screen"
        d="M36.0557 32.1599C55.9072 32.1599 72.0001 25.8867 72.0001 18.1484C72.0001 10.4101 55.9072 4.13692 36.0557 4.13692C16.2042 4.13692 0.111328 10.4101 0.111328 18.1484C0.111328 25.8867 16.2042 32.1599 36.0557 32.1599Z"
        fill="url(#paint8_radial_1_142)" />
    <path style="mix-blend-mode:overlay" opacity="0.37"
        d="M26.7834 38.513L21.0586 38.3238L21.4405 39.6427C21.4405 39.6427 23.7624 40.185 27.1028 40.3848L26.7834 38.513Z"
        fill="url(#paint9_linear_1_142)" />
    <path
        d="M11.2958 25.3598L0 27.1073V28.0317L5.15871 35.107L8.43503 36.2355L14.4128 35.3272L13.7683 33.579L9.15084 34.0886L6.96661 33.4003L3.7135 29.078L4.96174 27.7844L12.1677 28.5017L11.2958 25.3598Z"
        fill="url(#paint10_linear_1_142)" />
    <path
        d="M10.9491 24.4081L3.40845 23.6865L0 27.1072L5.00097 34.2543L8.17642 35.3946L13.9709 34.4763L13.3463 32.7109L8.8706 33.2253L6.75283 32.5303L3.59901 28.164L4.80962 26.8568L11.7946 27.5815L10.9491 24.4081Z"
        fill="url(#paint11_linear_1_142)" />
    <g opacity="0.28">
        <path
            d="M6.75343 32.5303L3.77495 28.4058L3.59961 28.5951L6.75343 32.9613L8.8712 33.6564L13.4935 33.1252L13.3469 32.7109L8.8712 33.2254L6.75343 32.5303Z"
            fill="white" />
        <path
            d="M3.40845 24.1175L11.0676 24.8502L10.9491 24.4081L3.40845 23.6865L0 27.1072L0.176944 27.3602L3.40845 24.1175Z"
            fill="white" />
    </g>
    <g opacity="0.35">
        <path
            d="M8.60201 28.1468L10.6773 28.3533L9.83344 25.1774L9.74456 25.1922L9.60444 24.645L9.50917 24.2703L7.74609 24.1014L8.60201 28.1468Z"
            fill="black" />
        <path
            d="M13.6383 35.3946L13.1779 33.7776L12.6351 33.346L12.9826 32.7523L9.6582 33.1345L10.2555 35.9592L12.0338 35.6889L13.6383 35.3946Z"
            fill="black" />
    </g>
    <path
        d="M47.1854 25.3598L58.4812 27.1073V28.0317L53.3225 35.107L50.0461 36.2355L44.0684 35.3272L44.7129 33.579L49.3303 34.0886L51.5154 33.4003L54.7685 29.078L53.5194 27.7844L46.3134 28.5017L47.1854 25.3598Z"
        fill="url(#paint12_linear_1_142)" />
    <path
        d="M47.5315 24.4081L55.073 23.6865L58.4806 27.1072L53.4796 34.2543L50.3042 35.3946L44.5098 34.4763L45.1343 32.7109L49.61 33.2253L51.7278 32.5303L54.8816 28.164L53.671 26.8568L46.686 27.5815L47.5315 24.4081Z"
        fill="url(#paint13_linear_1_142)" />
    <g opacity="0.63">
        <path
            d="M51.7264 32.5303L54.7048 28.4058L54.8802 28.5951L51.7264 32.9613L49.6086 33.6564L44.9863 33.1252L45.1329 32.7109L49.6086 33.2254L51.7264 32.5303Z"
            fill="white" />
        <path
            d="M55.0741 24.1175L47.4141 24.8502L47.5326 24.4081L55.0741 23.6865L58.4817 27.1072L58.3047 27.3602L55.0741 24.1175Z"
            fill="white" />
    </g>
    <g opacity="0.4">
        <path
            d="M47.9818 35.9221L48.6535 33.1153L46.4101 32.8575L46.2828 33.2161L46.0818 33.785L45.9465 33.7702L45.3027 35.5152L47.9818 35.9221Z"
            fill="black" />
        <path
            d="M49.742 28.1603L50.714 24.1032L48.9397 24.2733L48.858 24.58L48.6939 25.1959L48.589 25.1798L47.7051 28.3631L49.742 28.1603Z"
            fill="black" />
    </g>
    <path
        d="M50.4504 21.4498C50.4504 20.0121 41.065 18.8471 29.4865 18.8471C17.9081 18.8471 8.52344 20.0127 8.52344 21.4498C8.52422 21.508 8.53972 21.5656 8.56908 21.6192C8.94779 23.0279 11.618 32.8803 12.7662 34.9103C13.9672 37.0375 20.5759 38.9056 29.1182 39.0076V39.0126C29.2423 39.0126 29.364 39.0126 29.4865 39.0126C29.609 39.0126 29.7315 39.0126 29.8548 39.0126V39.0076C38.398 38.9056 45.0043 37.0375 46.2077 34.9103C47.3558 32.8803 50.0261 23.0279 50.4048 21.6192C50.4337 21.5655 50.4492 21.508 50.4504 21.4498Z"
        fill="url(#paint14_radial_1_142)" />
    <path style="mix-blend-mode:screen"
        d="M49.2943 31.9197C55.763 26.9239 55.763 18.824 49.2943 13.8281C42.8255 8.83227 32.3376 8.83227 25.8689 13.8281C19.4002 18.824 19.4002 26.9239 25.8689 31.9197C32.3376 36.9156 42.8255 36.9156 49.2943 31.9197Z"
        fill="url(#paint15_radial_1_142)" />
    <path style="mix-blend-mode:screen"
        d="M49.1302 30.4441C55.5989 25.4483 55.5989 17.3484 49.1302 12.3525C42.6615 7.35666 32.1736 7.35666 25.7049 12.3525C19.2361 17.3484 19.2361 25.4483 25.7049 30.4441C32.1736 35.44 42.6615 35.44 49.1302 30.4441Z"
        fill="url(#paint16_radial_1_142)" />
    <path style="mix-blend-mode:screen"
        d="M41.8646 28.9641C48.3333 23.9683 48.3333 15.8684 41.8646 10.8725C35.3958 5.87668 24.908 5.87668 18.4392 10.8725C11.9705 15.8684 11.9705 23.9683 18.4392 28.9641C24.908 33.96 35.3958 33.96 41.8646 28.9641Z"
        fill="url(#paint17_radial_1_142)" />
    <path style="mix-blend-mode:overlay"
        d="M36.871 20.309C36.871 20.309 35.5483 30.7234 34.73 33.1981C33.9117 35.6728 27.9724 39.0583 21.0586 38.3237C23.4142 38.7226 26.1492 38.9718 29.1189 39.0076V39.0126C29.243 39.0126 29.3647 39.0126 29.4872 39.0126C29.6097 39.0126 29.7322 39.0126 29.8555 39.0126V39.0076C32.7267 38.973 35.3801 38.7386 37.6797 38.3627C37.867 38.3144 42.4981 37.0845 43.6702 33.0584C44.8664 28.9487 46.7752 21.5921 46.7752 21.5921L36.871 20.309Z"
        fill="url(#paint18_linear_1_142)" />
    <path style="mix-blend-mode:overlay" opacity="0.43"
        d="M19.3044 34.185C18.563 32.6527 16.7527 22.668 16.1962 19.536C11.5115 20.0134 8.52344 20.7381 8.52344 21.5488C8.52413 21.607 8.53964 21.6646 8.56908 21.7182C8.94779 23.1274 11.618 32.9792 12.7662 35.013C13.9239 37.0598 20.0867 38.8654 28.1622 39.0899C21.7345 38.2452 20.186 36.0055 19.3044 34.185Z"
        fill="url(#paint19_linear_1_142)" />
    <path opacity="0.19"
        d="M8.52344 21.4498C8.52422 21.508 8.53972 21.5656 8.56908 21.6192C8.68998 22.07 9.04948 23.3841 9.51066 25.0295C20.7448 20.4215 46.7777 21.592 46.7777 21.592L48.4079 20.3269C45.0315 19.4519 37.8295 18.8471 29.4897 18.8471C17.9089 18.8471 8.52344 20.0127 8.52344 21.4498Z"
        fill="#000018" />
    <path style="mix-blend-mode:overlay" opacity="0.2"
        d="M30.2088 34.7799C29.7765 33.1294 28.4337 20.3102 28.4337 20.3102L28.2808 18.8521C22.6137 18.8966 17.5575 19.2231 13.9961 19.7134V19.7957H14.0049C14.3332 19.7512 14.6735 19.7079 15.0258 19.6658L15.1202 19.6553L15.531 19.6083L15.6751 19.5922C15.8352 19.5749 16.001 19.557 16.1675 19.5403H16.1955C16.756 22.6717 18.5623 32.657 19.3037 34.1893C19.3838 34.3581 19.4735 34.5313 19.5703 34.7063L19.5848 34.731C19.6112 34.7792 19.6384 34.8275 19.6648 34.8751L19.6984 34.9307C19.7209 34.9691 19.7441 35.0074 19.7681 35.0464C19.7833 35.0705 19.7985 35.0952 19.8145 35.1193L19.8778 35.217C19.897 35.2461 19.917 35.2752 19.937 35.3042C19.9571 35.3333 19.9755 35.3605 19.9947 35.3883C20.0139 35.4161 20.0419 35.4532 20.066 35.486C20.09 35.5188 20.102 35.5349 20.1204 35.5596L20.2005 35.666C20.2173 35.687 20.2341 35.7086 20.2517 35.7278C20.2829 35.7661 20.3142 35.8045 20.347 35.8422C20.363 35.8608 20.3782 35.8793 20.395 35.8972C20.4303 35.938 20.4663 35.9782 20.5031 36.0209L20.5472 36.0673C20.5872 36.11 20.6272 36.1532 20.6713 36.1959L20.7089 36.233C20.7545 36.2788 20.8018 36.3239 20.8498 36.369C20.8602 36.3777 20.8698 36.387 20.8802 36.3962C20.9323 36.4445 20.9859 36.4921 21.0404 36.5397L21.0588 36.5552C22.0868 37.4314 23.6554 38.2316 26.2111 38.7646H26.2175C26.3776 38.7971 26.5396 38.8291 26.7035 38.8604H26.7131C26.8786 38.8913 27.0483 38.921 27.2223 38.9495C27.8805 38.9798 28.5522 39.0008 29.2376 39.0113V39.0163C29.3617 39.0163 29.4834 39.0163 29.6059 39.0163C29.7284 39.0163 29.8509 39.0163 29.9742 39.0163V39.0113C30.768 39.0014 31.5419 38.9771 32.2962 38.9383C31.6508 37.8741 30.5115 35.935 30.2088 34.7799Z"
        fill="url(#paint20_linear_1_142)" />
    <path
        d="M29.4885 14.9051C16.5481 14.9051 6.05859 16.5524 6.05859 18.5843C6.05965 18.6656 6.07665 18.7463 6.10904 18.8237C6.22033 19.348 6.50937 20.6992 6.89769 22.4572C9.62717 20.9007 18.7067 19.7568 29.4885 19.7568C40.2703 19.7568 49.3499 20.9007 52.0794 22.4572C52.4677 20.6992 52.7567 19.348 52.868 18.8237C52.9004 18.7463 52.9174 18.6656 52.9185 18.5843C52.9185 16.5499 42.4289 14.9051 29.4885 14.9051Z"
        fill="url(#paint21_radial_1_142)" />
    <path style="mix-blend-mode:screen"
        d="M51.69 23.5996C57.3155 19.2551 57.3155 12.2111 51.69 7.86657C46.0646 3.522 36.944 3.522 31.3186 7.86657C25.6931 12.2111 25.6931 19.2551 31.3186 23.5996C36.944 27.9442 46.0646 27.9442 51.69 23.5996Z"
        fill="url(#paint22_radial_1_142)" />
    <path style="mix-blend-mode:overlay"
        d="M39.0532 15.2248L38.3398 19.9509L40.0477 20.1506C42.2096 20.3129 44.3587 20.5643 46.4858 20.9038L47.9062 21.0701L49.1785 16.5889C46.7276 15.9934 43.2111 15.5172 39.0532 15.2248Z"
        fill="url(#paint23_linear_1_142)" />
    <path opacity="0.14"
        d="M21.0903 15.1487C12.299 15.6793 6.05859 17.0168 6.05859 18.5843C6.05965 18.6656 6.07665 18.7463 6.10904 18.8237C6.22033 19.348 6.50937 20.6991 6.89769 22.4572C8.93379 21.2959 14.504 20.3646 21.6796 19.9664L21.0903 15.1487Z"
        fill="black" />
    <path style="mix-blend-mode:overlay"
        d="M29.4885 14.9051C16.5481 14.9051 6.05859 16.5524 6.05859 18.5843C6.05965 18.6656 6.07665 18.7463 6.10904 18.8237C6.11464 18.8515 6.12185 18.8855 6.12825 18.9146C7.05863 17.0168 17.1623 15.5222 29.4885 15.5222C41.8148 15.5222 51.9184 17.0168 52.8488 18.9146C52.8552 18.8824 52.8624 18.8527 52.868 18.8237C52.9004 18.7463 52.9174 18.6656 52.9185 18.5843C52.9185 16.5499 42.4289 14.9051 29.4885 14.9051Z"
        fill="url(#paint24_linear_1_142)" />
    <path opacity="0.35"
        d="M29.3223 19.1198C10.7468 19.1198 7.40484 21.3367 6.96207 22.1436C6.90646 22.2363 6.89511 22.3413 6.93004 22.4398C9.69634 20.8939 18.7463 19.7567 29.4873 19.7567C40.2282 19.7567 49.2734 20.8914 52.0421 22.4386C52.0766 22.3404 52.0653 22.236 52.01 22.1436C51.5673 21.3367 47.8978 19.1198 29.3223 19.1198Z"
        fill="url(#paint25_linear_1_142)" />
    <path
        d="M52.0099 22.2636C51.5672 21.5469 47.8977 19.5799 29.3222 19.5799C10.7467 19.5799 7.40475 21.55 6.96118 22.2667C6.51761 22.9834 9.00529 23.2221 9.00529 23.2221L8.74507 22.2636C15.0343 20.693 25.7464 20.5396 29.4872 20.5365C33.2279 20.5334 43.9408 20.693 50.2301 22.2636L49.9682 23.219C49.9682 23.219 52.4527 22.9809 52.0099 22.2636Z"
        fill="url(#paint26_linear_1_142)" />
    <path opacity="0.14"
        d="M28.3075 35.7572C32.6664 35.6949 36.1346 32.9154 36.0539 29.549C35.9733 26.1826 32.3744 23.5041 28.0155 23.5664C23.6566 23.6287 20.1884 26.4082 20.2691 29.7746C20.3497 33.141 23.9487 35.8195 28.3075 35.7572Z"
        fill="black" />
    <path
        d="M29.177 35.1831C33.5366 35.1831 37.0708 32.4536 37.0708 29.0866C37.0708 25.7197 33.5366 22.9902 29.177 22.9902C24.8174 22.9902 21.2832 25.7197 21.2832 29.0866C21.2832 32.4536 24.8174 35.1831 29.177 35.1831Z"
        fill="url(#paint27_linear_1_142)" />
    <path
        d="M34.3562 32.6465C37.2163 30.4376 37.2163 26.8563 34.3562 24.6474C31.4962 22.4386 26.859 22.4386 23.999 24.6474C21.1389 26.8563 21.1389 30.4376 23.999 32.6465C26.859 34.8553 31.4962 34.8553 34.3562 32.6465Z"
        fill="url(#paint28_linear_1_142)" />
    <path style="mix-blend-mode:overlay"
        d="M29.1752 22.9915C28.0955 22.9912 27.0291 23.1754 26.0525 23.5308C25.0758 23.8862 24.2129 24.404 23.5258 25.0471C22.8387 25.6903 22.3442 26.4429 22.0778 27.2509C21.8115 28.059 21.7799 28.9025 21.9852 29.7211C21.7918 28.6846 21.9924 27.627 22.5626 26.6769C23.1329 25.7268 24.0482 24.925 25.1973 24.3691C26.3464 23.8131 27.6799 23.5269 29.0356 23.5453C30.3914 23.5636 31.7111 23.8857 32.8343 24.4724C33.9575 25.0591 34.8359 25.8851 35.3627 26.85C35.8895 27.815 36.042 28.8774 35.8018 29.908C35.5615 30.9387 34.9388 31.8932 34.0093 32.6557C33.0798 33.4182 31.8836 33.9557 30.5659 34.203C32.3544 33.9362 33.95 33.1642 35.041 32.0377C36.1321 30.9112 36.6404 29.511 36.4666 28.1106C36.2928 26.7103 35.4495 25.4102 34.1013 24.4642C32.7531 23.5182 30.9967 22.9942 29.1752 22.9946V22.9915Z"
        fill="url(#paint29_linear_1_142)" />
    <path
        d="M29.1758 22.9914V29.8911L36.377 29.6729C36.5721 28.8572 36.5323 28.0183 36.2604 27.2159C35.9886 26.4134 35.4914 25.667 34.804 25.0296C34.1167 24.3922 33.2562 23.8794 32.2835 23.5277C31.3108 23.176 30.2498 22.994 29.1758 22.9945V22.9914Z"
        fill="url(#paint30_linear_1_142)" />
    <path style="mix-blend-mode:overlay"
        d="M32.8349 28.7261L31.0959 25.3863H25.9572L25.2606 27.3731H28.127L28.5177 28.1213L25.1133 31.0691V33.0967H31.7412V31.364H29.4193L32.8349 28.7261Z"
        fill="url(#paint31_linear_1_142)" />
    <path
        d="M25.5682 27.012H28.2873L28.7917 27.9773L25.3496 30.9571V32.7356H31.51V31.364H28.8573L32.5628 28.5022L30.9399 25.3863H26.1383L25.5682 27.012Z"
        fill="url(#paint32_linear_1_142)" />
    <g opacity="0.48">
        <path d="M28.7897 27.9772L25.3477 30.9571V31.4017L28.7897 28.4218V27.9772Z" fill="black" />
        <path
            d="M26.1365 25.8309H30.9381L32.3961 28.6296L32.561 28.5023L30.9381 25.3863H26.1365L25.5664 27.012H25.7225L26.1365 25.8309Z"
            fill="black" />
        <path d="M31.5081 31.364H28.8555V31.8086H31.5081V31.364Z" fill="black" />
    </g>
    <path style="mix-blend-mode:screen"
        d="M42.9758 55.9557C42.5491 56.2866 39.7932 54.7277 36.8219 52.4731C33.8506 50.2186 31.7881 48.1235 32.2165 47.7927C32.6448 47.4619 35.3983 49.0189 38.3704 51.2735C41.3425 53.528 43.4042 55.6237 42.9758 55.9557Z"
        fill="url(#paint33_radial_1_142)" />
    <path style="mix-blend-mode:screen"
        d="M24.9054 41.9999C24.4754 42.3289 26.4947 44.4579 29.4131 46.752C32.3316 49.0462 35.045 50.6397 35.4734 50.3095C35.9017 49.9793 33.8856 47.8515 30.9664 45.5561C28.0472 43.2608 25.3337 41.6691 24.9054 41.9999Z"
        fill="url(#paint34_radial_1_142)" />
    <path style="mix-blend-mode:screen"
        d="M52.3275 18.9708C51.2578 21.1537 48.152 22.3657 45.3897 21.678C42.6274 20.9904 41.2527 18.666 42.3216 16.4838C43.3905 14.3016 46.4978 13.0896 49.2586 13.7766C52.0193 14.4636 53.3972 16.7886 52.3275 18.9708Z"
        fill="url(#paint35_radial_1_142)" />
    <path style="mix-blend-mode:screen"
        d="M37.7788 25.165C37.3985 24.8719 39.6163 22.6532 42.7333 20.21C45.8503 17.7669 48.6863 16.0237 49.0666 16.3144C49.4469 16.605 47.2299 18.8249 44.1121 21.2693C40.9943 23.7137 38.1607 25.4587 37.7788 25.165Z"
        fill="url(#paint36_radial_1_142)" />
    <path style="mix-blend-mode:screen"
        d="M57.0478 10.2834C56.6683 9.98972 53.7963 11.7057 50.6321 14.1099C47.4678 16.5141 45.2116 18.7068 45.5879 19.0005C45.9642 19.2942 48.8386 17.582 52.0028 15.1753C55.1671 12.7686 57.4265 10.579 57.0478 10.2834Z"
        fill="url(#paint37_radial_1_142)" />
    <path style="mix-blend-mode:screen"
        d="M56.4719 24.7179C56.0452 25.0493 53.2893 23.4898 50.318 21.2359C47.3467 18.982 45.2842 16.8863 45.7125 16.5555C46.1409 16.2247 48.8944 17.7817 51.8665 20.0357C54.8386 22.2896 56.9003 24.3865 56.4719 24.7179Z"
        fill="url(#paint38_radial_1_142)" />
    <path style="mix-blend-mode:screen"
        d="M38.4015 10.7621C37.9715 11.0917 39.9908 13.2201 42.9092 15.5148C45.8276 17.8096 48.5411 19.4019 48.9703 19.0716C49.3994 18.7414 47.3817 16.6137 44.4625 14.3183C41.5433 12.0229 38.8298 10.4313 38.4015 10.7621Z"
        fill="url(#paint39_radial_1_142)" />
    <defs>
        <linearGradient id="paint0_linear_1_142" x1="39.8229" y1="46.5275" x2="22.7991" y2="46.5275"
            gradientUnits="userSpaceOnUse">
            <stop offset="0.04" stop-color="#BCC8DC" />
            <stop offset="0.96" stop-color="#444C54" />
            <stop offset="1" stop-color="#404850" />
        </linearGradient>
        <linearGradient id="paint1_linear_1_142" x1="38.3639" y1="47.7569" x2="21.3105" y2="47.7569"
            gradientUnits="userSpaceOnUse">
            <stop stop-color="#FEFEFF" />
            <stop offset="1" stop-color="white" />
        </linearGradient>
        <linearGradient id="paint2_linear_1_142" x1="37.1489" y1="48.7295" x2="17.3876" y2="48.7295"
            gradientUnits="userSpaceOnUse">
            <stop stop-color="#98A2B2" />
            <stop offset="0.17" stop-color="#D8E4E4" />
            <stop offset="1" stop-color="#282A32" />
        </linearGradient>
        <radialGradient id="paint3_radial_1_142" cx="0" cy="0" r="1" gradientUnits="userSpaceOnUse"
            gradientTransform="translate(32.5727 48.9997) rotate(-3.57119) scale(12.2812 4.18933)">
            <stop stop-color="#98A2C6" />
            <stop offset="0.03" stop-color="#8891B1" />
            <stop offset="0.1" stop-color="#686F88" />
            <stop offset="0.18" stop-color="#4C5163" />
            <stop offset="0.27" stop-color="#353844" />
            <stop offset="0.36" stop-color="#21232B" />
            <stop offset="0.46" stop-color="#121418" />
            <stop offset="0.58" stop-color="#08080A" />
            <stop offset="0.72" stop-color="#020202" />
            <stop offset="1" />
        </radialGradient>
        <linearGradient id="paint4_linear_1_142" x1="26.6635" y1="45.5283" x2="17.7781" y2="49.0688"
            gradientUnits="userSpaceOnUse">
            <stop />
            <stop offset="1" />
        </linearGradient>
        <linearGradient id="paint5_linear_1_142" x1="34.2745" y1="42.1501" x2="24.2621" y2="42.1501"
            gradientUnits="userSpaceOnUse">
            <stop offset="0.09" stop-color="#9CAAB2" />
            <stop offset="0.23" stop-color="#89969E" />
            <stop offset="0.57" stop-color="#616C74" />
            <stop offset="0.84" stop-color="#49525A" />
            <stop offset="1" stop-color="#404850" />
        </linearGradient>
        <linearGradient id="paint6_linear_1_142" x1="32.5597" y1="37.4036" x2="32.5597" y2="44.2025"
            gradientUnits="userSpaceOnUse">
            <stop stop-color="#FEFEBE" />
            <stop offset="1" stop-color="white" />
        </linearGradient>
        <linearGradient id="paint7_linear_1_142" x1="27.0749" y1="39.1876" x2="27.0749" y2="44.0213"
            gradientUnits="userSpaceOnUse">
            <stop />
            <stop offset="1" />
        </linearGradient>
        <radialGradient id="paint8_radial_1_142" cx="0" cy="0" r="1" gradientUnits="userSpaceOnUse"
            gradientTransform="translate(36.0332 18.2517) scale(35.7046 13.9268)">
            <stop stop-color="#8AA6CA" />
            <stop offset="0.04" stop-color="#7992B1" />
            <stop offset="0.11" stop-color="#5D7088" />
            <stop offset="0.19" stop-color="#445263" />
            <stop offset="0.27" stop-color="#2F3844" />
            <stop offset="0.36" stop-color="#1E242B" />
            <stop offset="0.46" stop-color="#101418" />
            <stop offset="0.58" stop-color="#07080A" />
            <stop offset="0.73" stop-color="#020202" />
            <stop offset="1" />
        </radialGradient>
        <linearGradient id="paint9_linear_1_142" x1="24.0803" y1="37.9324" x2="24.0803" y2="44.3225"
            gradientUnits="userSpaceOnUse">
            <stop />
            <stop offset="1" />
        </linearGradient>
        <linearGradient id="paint10_linear_1_142" x1="8.95227" y1="24.2405" x2="6.90287"
            y2="37.9729" gradientUnits="userSpaceOnUse">
            <stop stop-color="#626E7A" />
            <stop offset="1" stop-color="#282A32" />
        </linearGradient>
        <linearGradient id="paint11_linear_1_142" x1="14.0549" y1="30.1762" x2="-13.0395"
            y2="26.6798" gradientUnits="userSpaceOnUse">
            <stop offset="0.09" stop-color="#9CAAB2" />
            <stop offset="1" stop-color="#404850" />
        </linearGradient>
        <linearGradient id="paint12_linear_1_142" x1="51.2752" y1="15.1555" x2="51.2752"
            y2="50.1147" gradientUnits="userSpaceOnUse">
            <stop stop-color="#6C829C" />
            <stop offset="1" stop-color="#282A32" />
        </linearGradient>
        <linearGradient id="paint13_linear_1_142" x1="35.3141" y1="28.1987" x2="63.4087" y2="31.836"
            gradientUnits="userSpaceOnUse">
            <stop stop-color="#ECFEF4" />
            <stop offset="0.29" stop-color="#CED8D4" />
            <stop offset="0.83" stop-color="#8A9498" />
            <stop offset="1" stop-color="#50565C" />
        </linearGradient>
        <radialGradient id="paint14_radial_1_142" cx="0" cy="0" r="1" gradientUnits="userSpaceOnUse"
            gradientTransform="translate(35.7437 23.3303) scale(27.9833 21.6118)">
            <stop stop-color="#FAFEF4" />
            <stop offset="0.29" stop-color="#CED8D4" />
            <stop offset="0.71" stop-color="#8A9498" />
            <stop offset="1" stop-color="#50565C" />
        </radialGradient>
        <radialGradient id="paint15_radial_1_142" cx="0" cy="0" r="1" gradientUnits="userSpaceOnUse"
            gradientTransform="translate(37.5818 22.9686) scale(16.4641 12.7154)">
            <stop stop-color="#E0E4FF" />
            <stop offset="0.04" stop-color="#C6CAE2" />
            <stop offset="0.1" stop-color="#9DA0B3" />
            <stop offset="0.17" stop-color="#787A88" />
            <stop offset="0.24" stop-color="#575963" />
            <stop offset="0.32" stop-color="#3C3D44" />
            <stop offset="0.41" stop-color="#26272B" />
            <stop offset="0.5" stop-color="#151518" />
            <stop offset="0.61" stop-color="#09090A" />
            <stop offset="0.74" stop-color="#020202" />
            <stop offset="1" />
        </radialGradient>
        <radialGradient id="paint16_radial_1_142" cx="0" cy="0" r="1" gradientUnits="userSpaceOnUse"
            gradientTransform="translate(37.4177 21.4927) scale(16.4641 12.7154)">
            <stop stop-color="#E0E4FF" />
            <stop offset="0.04" stop-color="#C6CAE2" />
            <stop offset="0.1" stop-color="#9DA0B3" />
            <stop offset="0.17" stop-color="#787A88" />
            <stop offset="0.24" stop-color="#575963" />
            <stop offset="0.32" stop-color="#3C3D44" />
            <stop offset="0.41" stop-color="#26272B" />
            <stop offset="0.5" stop-color="#151518" />
            <stop offset="0.61" stop-color="#09090A" />
            <stop offset="0.74" stop-color="#020202" />
            <stop offset="1" />
        </radialGradient>
        <radialGradient id="paint17_radial_1_142" cx="0" cy="0" r="1" gradientUnits="userSpaceOnUse"
            gradientTransform="translate(30.1519 20.0131) scale(16.4641 12.7154)">
            <stop offset="0.01" stop-color="#9F95B1" />
            <stop offset="0.09" stop-color="#7A7287" />
            <stop offset="0.17" stop-color="#595463" />
            <stop offset="0.25" stop-color="#3E3A44" />
            <stop offset="0.34" stop-color="#27252B" />
            <stop offset="0.45" stop-color="#161418" />
            <stop offset="0.57" stop-color="#09090A" />
            <stop offset="0.72" stop-color="#020202" />
            <stop offset="1" />
        </radialGradient>
        <linearGradient id="paint18_linear_1_142" x1="33.9165" y1="20.3485" x2="33.9165"
            y2="33.3533" gradientUnits="userSpaceOnUse">
            <stop stop-color="#F2ECFF" />
            <stop offset="1" stop-color="white" />
        </linearGradient>
        <linearGradient id="paint19_linear_1_142" x1="15.1842" y1="25.0654" x2="18.2136"
            y2="36.6214" gradientUnits="userSpaceOnUse">
            <stop />
            <stop offset="1" />
        </linearGradient>
        <linearGradient id="paint20_linear_1_142" x1="21.5808" y1="21.2464" x2="23.4348"
            y2="34.7226" gradientUnits="userSpaceOnUse">
            <stop />
            <stop offset="1" />
        </linearGradient>
        <radialGradient id="paint21_radial_1_142" cx="0" cy="0" r="1" gradientUnits="userSpaceOnUse"
            gradientTransform="translate(41.2479 17.9215) scale(42.2264 32.6118)">
            <stop stop-color="#ECFEF4" />
            <stop offset="0.29" stop-color="#CED8D4" />
            <stop offset="0.55" stop-color="#8A9498" />
            <stop offset="1" stop-color="#50565C" />
        </radialGradient>
        <radialGradient id="paint22_radial_1_142" cx="0" cy="0" r="1" gradientUnits="userSpaceOnUse"
            gradientTransform="translate(41.5042 15.8153) scale(14.3183 11.0582)">
            <stop offset="0.01" stop-color="#D2CAFF" />
            <stop offset="0.04" stop-color="#BAB3E2" />
            <stop offset="0.11" stop-color="#938EB3" />
            <stop offset="0.17" stop-color="#706C88" />
            <stop offset="0.25" stop-color="#524F63" />
            <stop offset="0.32" stop-color="#383644" />
            <stop offset="0.41" stop-color="#24222B" />
            <stop offset="0.5" stop-color="#141318" />
            <stop offset="0.61" stop-color="#08080A" />
            <stop offset="0.74" stop-color="#020202" />
            <stop offset="1" />
        </radialGradient>
        <linearGradient id="paint23_linear_1_142" x1="43.7596" y1="15.0294" x2="43.7596"
            y2="20.3244" gradientUnits="userSpaceOnUse">
            <stop stop-color="#FEFEBE" />
            <stop offset="1" stop-color="white" />
        </linearGradient>
        <linearGradient id="paint24_linear_1_142" x1="6.05859" y1="16.9098" x2="52.9185"
            y2="16.9098" gradientUnits="userSpaceOnUse">
            <stop stop-color="#FEFEFF" />
            <stop offset="0.12" stop-color="#FEFEFF" />
            <stop offset="0.54" stop-color="#FEFEFF" />
            <stop offset="1" stop-color="#FEFEFF" />
        </linearGradient>
        <linearGradient id="paint25_linear_1_142" x1="43.0442" y1="20.7795" x2="22.0667"
            y2="20.7795" gradientUnits="userSpaceOnUse">
            <stop stop-color="#6A7882" />
            <stop offset="0.22" stop-color="#65737D" />
            <stop offset="0.49" stop-color="#58636D" />
            <stop offset="0.8" stop-color="#424953" />
            <stop offset="1" stop-color="#30343E" />
        </linearGradient>
        <linearGradient id="paint26_linear_1_142" x1="43.0449" y1="21.3979" x2="22.0666"
            y2="21.3979" gradientUnits="userSpaceOnUse">
            <stop stop-color="#828C9A" />
            <stop offset="0.4" stop-color="#636B78" />
            <stop offset="1" stop-color="#30343E" />
        </linearGradient>
        <linearGradient id="paint27_linear_1_142" x1="33.0154" y1="25.2695" x2="28.1125"
            y2="33.4448" gradientUnits="userSpaceOnUse">
            <stop stop-color="#8A9498" />
            <stop offset="1" stop-color="#50565C" />
        </linearGradient>
        <linearGradient id="paint28_linear_1_142" x1="32.8459" y1="23.7826" x2="26.6702" y2="37.513"
            gradientUnits="userSpaceOnUse">
            <stop stop-color="#E6EAEC" />
            <stop offset="0.71" stop-color="#8A9498" />
            <stop offset="1" stop-color="#50565C" />
        </linearGradient>
        <linearGradient id="paint29_linear_1_142" x1="32.8462" y1="23.7799" x2="27.4338"
            y2="35.8126" gradientUnits="userSpaceOnUse">
            <stop stop-color="#FEFEFF" />
            <stop offset="0.12" stop-color="#FEFEFF" />
            <stop offset="0.54" stop-color="#FEFEFF" />
            <stop offset="1" stop-color="#FEFEFF" />
        </linearGradient>
        <linearGradient id="paint30_linear_1_142" x1="34.8942" y1="24.1472" x2="31.7514"
            y2="29.5832" gradientUnits="userSpaceOnUse">
            <stop stop-color="#F2ECFF" />
            <stop offset="0.48" stop-color="#FAF8FF" />
            <stop offset="1" stop-color="white" />
        </linearGradient>
        <linearGradient id="paint31_linear_1_142" x1="29.039" y1="31.4599" x2="28.5794" y2="24.9527"
            gradientUnits="userSpaceOnUse">
            <stop stop-color="#FEFEFF" />
            <stop offset="0.12" stop-color="#FEFEFF" />
            <stop offset="0.54" stop-color="#FEFEFF" />
            <stop offset="1" stop-color="#FEFEFF" />
        </linearGradient>
        <linearGradient id="paint32_linear_1_142" x1="28.9558" y1="34.8176" x2="28.9558"
            y2="26.9551" gradientUnits="userSpaceOnUse">
            <stop stop-color="#6A7882" />
            <stop offset="0.37" stop-color="#505963" />
            <stop offset="0.77" stop-color="#393E48" />
            <stop offset="1" stop-color="#30343E" />
        </linearGradient>
        <radialGradient id="paint33_radial_1_142" cx="0" cy="0" r="1" gradientUnits="userSpaceOnUse"
            gradientTransform="translate(39.7098 50.4479) rotate(37.1424) scale(6.76121 0.92686)">
            <stop stop-color="#F5F606" />
            <stop offset="0.03" stop-color="#C5C823" />
            <stop offset="0.06" stop-color="#9DA23B" />
            <stop offset="0.09" stop-color="#7E844E" />
            <stop offset="0.11" stop-color="#686F5B" />
            <stop offset="0.14" stop-color="#5B6263" />
            <stop offset="0.16" stop-color="#565E66" />
            <stop offset="0.24" stop-color="#40464C" />
            <stop offset="0.35" stop-color="#292D31" />
            <stop offset="0.48" stop-color="#17191B" />
            <stop offset="0.61" stop-color="#0A0B0C" />
            <stop offset="0.77" stop-color="#020303" />
            <stop offset="1" />
        </radialGradient>
        <radialGradient id="paint34_radial_1_142" cx="0" cy="0" r="1" gradientUnits="userSpaceOnUse"
            gradientTransform="translate(31.9575 44.5317) rotate(-141.781) scale(6.72811 0.93142)">
            <stop stop-color="#F5F606" />
            <stop offset="0.03" stop-color="#C5C823" />
            <stop offset="0.06" stop-color="#9DA23B" />
            <stop offset="0.09" stop-color="#7E844E" />
            <stop offset="0.11" stop-color="#686F5B" />
            <stop offset="0.14" stop-color="#5B6263" />
            <stop offset="0.16" stop-color="#565E66" />
            <stop offset="0.24" stop-color="#40464C" />
            <stop offset="0.35" stop-color="#292D31" />
            <stop offset="0.48" stop-color="#17191B" />
            <stop offset="0.61" stop-color="#0A0B0C" />
            <stop offset="0.77" stop-color="#020303" />
            <stop offset="1" />
        </radialGradient>
        <radialGradient id="paint35_radial_1_142" cx="0" cy="0" r="1" gradientUnits="userSpaceOnUse"
            gradientTransform="translate(47.3655 18.0878) rotate(14.0034) scale(5.13414 4.31422)">
            <stop stop-color="white" />
            <stop offset="0.03" stop-color="#E4E4E4" />
            <stop offset="0.1" stop-color="#B5B5B5" />
            <stop offset="0.17" stop-color="#8A8A8A" />
            <stop offset="0.24" stop-color="#646464" />
            <stop offset="0.32" stop-color="#454545" />
            <stop offset="0.41" stop-color="#2C2C2C" />
            <stop offset="0.51" stop-color="#181818" />
            <stop offset="0.62" stop-color="#0A0A0A" />
            <stop offset="0.75" stop-color="#020202" />
            <stop offset="1" />
        </radialGradient>
        <radialGradient id="paint36_radial_1_142" cx="0" cy="0" r="1" gradientUnits="userSpaceOnUse"
            gradientTransform="translate(43.922 20.8306) rotate(141.814) scale(7.16462 0.846623)">
            <stop stop-color="#F5F606" />
            <stop offset="0.03" stop-color="#C5C823" />
            <stop offset="0.06" stop-color="#9DA23B" />
            <stop offset="0.09" stop-color="#7E844E" />
            <stop offset="0.11" stop-color="#686F5B" />
            <stop offset="0.14" stop-color="#5B6263" />
            <stop offset="0.16" stop-color="#565E66" />
            <stop offset="0.24" stop-color="#40464C" />
            <stop offset="0.35" stop-color="#292D31" />
            <stop offset="0.48" stop-color="#17191B" />
            <stop offset="0.61" stop-color="#0A0B0C" />
            <stop offset="0.77" stop-color="#020303" />
            <stop offset="1" />
        </radialGradient>
        <radialGradient id="paint37_radial_1_142" cx="0" cy="0" r="1" gradientUnits="userSpaceOnUse"
            gradientTransform="translate(51.3244 14.9006) rotate(-37.1749) scale(7.19772 0.84273)">
            <stop stop-color="#F5F606" />
            <stop offset="0.03" stop-color="#C5C823" />
            <stop offset="0.06" stop-color="#9DA23B" />
            <stop offset="0.09" stop-color="#7E844E" />
            <stop offset="0.11" stop-color="#686F5B" />
            <stop offset="0.14" stop-color="#5B6263" />
            <stop offset="0.16" stop-color="#565E66" />
            <stop offset="0.24" stop-color="#40464C" />
            <stop offset="0.35" stop-color="#292D31" />
            <stop offset="0.48" stop-color="#17191B" />
            <stop offset="0.61" stop-color="#0A0B0C" />
            <stop offset="0.77" stop-color="#020303" />
            <stop offset="1" />
        </radialGradient>
        <radialGradient id="paint38_radial_1_142" cx="0" cy="0" r="1" gradientUnits="userSpaceOnUse"
            gradientTransform="translate(52.6732 19.6543) rotate(37.1424) scale(6.76121 0.92686)">
            <stop stop-color="#F5F606" />
            <stop offset="0.03" stop-color="#C5C823" />
            <stop offset="0.06" stop-color="#9DA23B" />
            <stop offset="0.09" stop-color="#7E844E" />
            <stop offset="0.11" stop-color="#686F5B" />
            <stop offset="0.14" stop-color="#5B6263" />
            <stop offset="0.16" stop-color="#565E66" />
            <stop offset="0.24" stop-color="#40464C" />
            <stop offset="0.35" stop-color="#292D31" />
            <stop offset="0.48" stop-color="#17191B" />
            <stop offset="0.61" stop-color="#0A0B0C" />
            <stop offset="0.77" stop-color="#020303" />
            <stop offset="1" />
        </radialGradient>
        <radialGradient id="paint39_radial_1_142" cx="0" cy="0" r="1" gradientUnits="userSpaceOnUse"
            gradientTransform="translate(44.8759 13.6621) rotate(-141.781) scale(6.72811 0.93142)">
            <stop stop-color="#F5F606" />
            <stop offset="0.03" stop-color="#C5C823" />
            <stop offset="0.06" stop-color="#9DA23B" />
            <stop offset="0.09" stop-color="#7E844E" />
            <stop offset="0.11" stop-color="#686F5B" />
            <stop offset="0.14" stop-color="#5B6263" />
            <stop offset="0.16" stop-color="#565E66" />
            <stop offset="0.24" stop-color="#40464C" />
            <stop offset="0.35" stop-color="#292D31" />
            <stop offset="0.48" stop-color="#17191B" />
            <stop offset="0.61" stop-color="#0A0B0C" />
            <stop offset="0.77" stop-color="#020303" />
            <stop offset="1" />
        </radialGradient>
    </defs>
</svg>